<svg xmlns="http://www.w3.org/2000/svg" version="1.1" xmlns:xlink="http://www.w3.org/1999/xlink" xmlns:svgjs="http://svgjs.dev/svgjs" width="1000" height="1000" viewBox="0 0 1000 1000"><rect width="1000" height="1000" fill="#ffffff"></rect><g transform="matrix(0.7,0,0,0.7,149.57575757575756,440.9864318499311)"><svg viewBox="0 0 396 67" data-background-color="#111111" preserveAspectRatio="xMidYMid meet" height="169" width="1000" xmlns="http://www.w3.org/2000/svg" xmlns:xlink="http://www.w3.org/1999/xlink"><g id="tight-bounds" transform="matrix(1,0,0,1,0.2400000000000091,-0.07726909505817048)"><svg viewBox="0 0 395.52 67.15453819011637" height="67.15453819011637" width="395.52"><g><svg viewBox="0 0 669.3491999477267 113.64744238069744" height="67.15453819011637" width="395.52"><g><rect width="4.714515054589266" height="113.64744238069744" x="407.86166244656874" y="0" fill="#000000" opacity="1" stroke-width="0" stroke="transparent" fill-opacity="1" class="rect-i$-0" data-fill-palette-color="primary" rx="1%" id="i$-0" data-palette-color="#93bfcf"></rect></g><g transform="matrix(1,0,0,1,0,0.28270508054899324)"><svg viewBox="0 0 395.52 113.08203221959945" height="113.08203221959945" width="395.52"><g id="textblocktransform"><svg viewBox="0 0 395.52 113.08203221959945" height="113.08203221959945" width="395.52" id="textblock"><g><svg viewBox="0 0 395.52 52.27834445927903" height="52.27834445927903" width="395.52"><g transform="matrix(1,0,0,1,0,0)"><svg width="395.52" viewBox="1.2 -37.9 301.08 39.6" height="52.27834445927903" data-palette-color="#93bfcf"><g class="undefined-text-0" data-fill-palette-color="primary" id="text-0"><path d="M6.9 0L1.2 0 17.3-37.9 17.65-37.9 33.75 0 27.05 0 15.75-28.8 19.9-31.6 6.9 0ZM9.55-8.55L11.3-13.55 23.75-13.55 25.75-8.55 9.55-8.55ZM57 0L64.65-5.65 76.65-5.65 76.65 0 57 0ZM37.7-18.15L37.7-18.15Q37.7-21.95 39.15-25.3 40.6-28.65 43.15-31.25 45.7-33.85 49.07-35.33 52.45-36.8 56.3-36.8L56.3-36.8Q60.1-36.8 63.47-35.33 66.85-33.85 69.42-31.25 72-28.65 73.47-25.3 74.95-21.95 74.95-18.15L74.95-18.15Q74.95-14.3 73.47-10.93 72-7.55 69.42-5 66.85-2.45 63.47-1.03 60.1 0.4 56.3 0.4L56.3 0.4Q52.4 0.4 49.05-1.03 45.7-2.45 43.15-4.98 40.6-7.5 39.15-10.88 37.7-14.25 37.7-18.15ZM43.7-18.15L43.7-18.15Q43.7-15.5 44.67-13.15 45.65-10.8 47.4-9.03 49.15-7.25 51.45-6.25 53.75-5.25 56.45-5.25L56.45-5.25Q59.05-5.25 61.32-6.25 63.6-7.25 65.3-9 67-10.75 67.97-13.1 68.95-15.45 68.95-18.15L68.95-18.15Q68.95-20.8 67.95-23.15 66.95-25.5 65.25-27.28 63.55-29.05 61.25-30.05 58.95-31.05 56.3-31.05L56.3-31.05Q53.65-31.05 51.35-30.05 49.05-29.05 47.32-27.25 45.6-25.45 44.65-23.1 43.7-20.75 43.7-18.15ZM89.7-36.4L89.7-13.1Q89.7-10.95 90.82-9.15 91.95-7.35 93.8-6.3 95.65-5.25 97.95-5.25L97.95-5.25Q100.35-5.25 102.25-6.3 104.15-7.35 105.25-9.15 106.35-10.95 106.35-13.1L106.35-13.1 106.35-36.4 112.09-36.4 112.09-12.95Q112.09-9 110.2-5.98 108.3-2.95 105.1-1.28 101.9 0.4 97.95 0.4L97.95 0.4 97.95 0.4Q94.05 0.4 90.85-1.28 87.65-2.95 85.77-5.98 83.9-9 83.9-12.95L83.9-12.95 83.9-36.4 89.7-36.4ZM123.39 0L117.69 0 133.79-37.9 134.14-37.9 150.24 0 143.54 0 132.24-28.8 136.39-31.6 123.39 0ZM126.04-8.55L127.79-13.55 140.24-13.55 142.24-8.55 126.04-8.55Z" fill="#000000" data-fill-palette-color="primary"></path><path d="M176.54-33.45L174.34-29Q172.39-30 170.19-30.73 167.99-31.45 165.99-31.45L165.99-31.45Q163.29-31.45 161.72-30.25 160.14-29.05 160.14-26.95L160.14-26.95Q160.14-25.45 161.22-24.33 162.29-23.2 164.02-22.38 165.74-21.55 167.64-20.8L167.64-20.8Q169.29-20.2 170.92-19.38 172.54-18.55 173.84-17.35 175.14-16.15 175.89-14.38 176.64-12.6 176.64-10L176.64-10Q176.64-7.15 175.22-4.78 173.79-2.4 171.09-1 168.39 0.4 164.54 0.4L164.54 0.4Q162.24 0.4 160.07-0.1 157.89-0.6 155.94-1.48 153.99-2.35 152.34-3.45L152.34-3.45 154.94-8Q156.14-7.1 157.69-6.35 159.24-5.6 160.89-5.15 162.54-4.7 163.99-4.7L163.99-4.7Q165.54-4.7 167.06-5.23 168.59-5.75 169.62-6.9 170.64-8.05 170.64-9.95L170.64-9.95Q170.64-11.5 169.77-12.6 168.89-13.7 167.44-14.53 165.99-15.35 164.29-16L164.29-16Q162.59-16.65 160.84-17.45 159.09-18.25 157.57-19.43 156.04-20.6 155.09-22.3 154.14-24 154.14-26.5L154.14-26.5Q154.14-29.5 155.54-31.7 156.94-33.9 159.42-35.2 161.89-36.5 165.14-36.6L165.14-36.6Q168.99-36.6 171.72-35.68 174.44-34.75 176.54-33.45L176.54-33.45ZM195.74 1.7L181.19-36.2 187.99-36.2 196.99-10.4 196.04-10.8 203.04-28.75 205.74-20.8 195.74 1.7ZM213.99 1.6L198.99-36.2 204.79-36.2 214.79-10.95 213.64-11.15 221.94-36.2 228.19-36.2 213.99 1.6ZM235.04 0L235.04-36.4 240.89-36.4 240.89 0 235.04 0ZM250.88 0L250.88-36.4 272.98-36.4 272.98-30.8 256.73-30.8 256.73-20.55 270.88-20.55 270.88-15 256.73-15 256.73 0 250.88 0ZM277.93-30.8L277.93-36.4 302.28-36.4 302.28-30.8 292.88-30.8 292.88 0 287.08 0 287.08-30.8 277.93-30.8Z" fill="#000000" data-fill-palette-color="secondary"></path></g></svg></g></svg></g><g transform="matrix(1,0,0,1,210.26721339511505,64.62000690584779)"><svg viewBox="0 0 185.25278660488493 48.46202531375166" height="48.46202531375166" width="185.25278660488493"><g transform="matrix(1,0,0,1,0,0)"><svg width="185.25278660488493" viewBox="5.5 -41.65 214.43 56.099999999999994" height="48.46202531375166" data-palette-color="#c7e9b0"><path d="M9.45 0.35L9.45 0.35Q11.75-1.2 13.95-3.63 16.15-6.05 17.95-8.88 19.75-11.7 21-14.75 22.25-17.8 22.7-20.6L22.7-20.6Q22.7-21.2 22.05-21.4L22.05-21.4Q21.35-21.4 20.13-20.18 18.9-18.95 17.43-17.05 15.95-15.15 14.43-12.8 12.9-10.45 11.65-8.13 10.4-5.8 9.53-3.78 8.65-1.75 8.55-0.5L8.55-0.5Q8.05-0.5 7.7-1.5L7.7-1.5Q7.6-1.75 7.35-2.02 7.1-2.3 6.55-2.7L6.55-2.7Q6.3-2.9 6.05-3.18 5.8-3.45 5.7-3.65L5.7-3.65Q5.5-4.05 5.5-4.95L5.5-4.95Q5.5-7.9 6.25-11.6 7-15.3 8.22-19.15 9.45-23 11.1-26.73 12.75-30.45 14.53-33.55 16.3-36.65 18.1-38.8 19.9-40.95 21.5-41.65L21.5-41.65Q22-41.5 22.7-41.15 23.4-40.8 24.1-40.35 24.8-39.9 25.43-39.45 26.05-39 26.35-38.65L26.35-38.65Q20.85-34.2 16.82-27.23 12.8-20.25 10.25-10.75L10.25-10.75Q11.65-13.35 13.4-15.78 15.15-18.2 16.88-20.05 18.6-21.9 20.18-23 21.75-24.1 22.8-24.1L22.8-24.1Q23.6-23.9 24.35-23.4 25.1-22.9 25.7-22.18 26.3-21.45 26.7-20.63 27.1-19.8 27.2-18.9L27.2-18.9Q27.15-16.8 26.48-14.43 25.8-12.05 24.68-9.75 23.55-7.45 22.13-5.35 20.7-3.25 19.13-1.68 17.55-0.1 15.98 0.85 14.4 1.8 13 1.8L13 1.8Q12.4 1.8 11.78 1.68 11.15 1.55 10.63 1.33 10.1 1.1 9.78 0.85 9.45 0.6 9.45 0.35ZM34.35 1.75L34.35 1.75Q31.5 1.45 29.8-0.75 28.1-2.95 28.1-6.35L28.1-6.35Q28.1-8.35 28.7-10.5 29.3-12.65 30.4-14.68 31.5-16.7 33-18.5 34.5-20.3 36.25-21.6L36.25-21.6Q39-23.65 41.4-23.65L41.4-23.65Q43-22.8 44.55-20.1L44.55-20.1Q44.8-20.1 45-20.13 45.2-20.15 45.45-20.15L45.45-20.15Q48.1-20.15 48.1-15.45L48.1-15.45Q48.1-12.3 47.07-9.47 46.05-6.65 44.22-4.35 42.4-2.05 39.87-0.48 37.35 1.1 34.35 1.75ZM36.9-14L36.9-14Q36.05-12.85 35.3-11.5 34.55-10.15 34-8.78 33.45-7.4 33.15-6.13 32.85-4.85 32.85-3.85L32.85-3.85Q32.85-2.65 33.25-1.55 33.65-0.45 34.15-0.3L34.15-0.3Q36.4-0.8 38.27-2.18 40.15-3.55 41.52-5.6 42.9-7.65 43.67-10.25 44.45-12.85 44.45-15.8L44.45-15.8Q44.45-17.1 44.3-17.85 44.15-18.6 43.8-19.15L43.8-19.15Q41.6-18.5 39.87-17.05 38.15-15.6 36.9-14ZM67.75-20.2L67.75-20.2Q68.25-20.2 68.92-20.03 69.59-19.85 70.15-19.58 70.7-19.3 71.07-19 71.45-18.7 71.45-18.45L71.45-18.45Q70.45-16.35 69.59-14.23 68.75-12.1 68.15-10.15 67.55-8.2 67.22-6.5 66.9-4.8 66.9-3.55L66.9-3.55Q66.9-2.15 67.2-1.23 67.5-0.3 68.2 0.1L68.2 0.1Q67.59 0.5 66.65 0.75 65.7 1 64.95 1L64.95 1Q62.25 1 62.25-2.7L62.25-2.7Q62.25-5.55 64.15-10.5L64.15-10.5Q63.15-8.2 61.84-6.18 60.55-4.15 59.2-2.6 57.85-1.05 56.47-0.08 55.1 0.9 53.95 1.1L53.95 1.1Q52.1 1 50.95-0.68 49.8-2.35 49.8-4.95L49.8-4.95Q49.8-7.75 51-10.85 52.2-13.95 54.07-16.6 55.95-19.25 58.15-21.03 60.35-22.8 62.4-22.9L62.4-22.9Q62.9-22.75 63.52-22.3 64.15-21.85 64.72-21.25 65.3-20.65 65.7-20.03 66.09-19.4 66.15-18.95L66.15-18.95Q64.15-18.65 62.02-17 59.9-15.35 58.17-13.03 56.45-10.7 55.35-8.05 54.25-5.4 54.25-3.1L54.25-3.1Q54.25-2.15 54.95-1.9L54.95-1.9Q56.4-2.2 58.3-4.38 60.2-6.55 62.9-11.1L62.9-11.1Q63.4-12 64.02-13.1 64.65-14.2 65.3-15.4 65.95-16.6 66.57-17.82 67.2-19.05 67.75-20.2ZM78.94-19.15L76.09-19.15Q75.84-19.45 75.64-20.43 75.44-21.4 75.44-22.1L75.44-22.1Q76.74-22 77.94-21.93 79.14-21.85 80.14-21.8L80.14-21.8Q80.89-23.3 81.77-24.78 82.64-26.25 83.47-27.48 84.29-28.7 85.02-29.55 85.74-30.4 86.14-30.65L86.14-30.65Q86.64-30.65 87.42-30.48 88.19-30.3 88.99-30.03 89.79-29.75 90.44-29.45 91.09-29.15 91.34-28.85L91.34-28.85Q89.84-26.95 88.77-25.33 87.69-23.7 86.44-21.6L86.44-21.6Q87.44-21.6 88.47-21.65 89.49-21.7 90.54-21.8L90.54-21.8Q90.79-21.55 90.94-21.18 91.09-20.8 91.09-20.4L91.09-20.4Q88.64-19.5 85.14-19.4L85.14-19.4Q83.89-17 82.92-14.63 81.94-12.25 81.27-10.05 80.59-7.85 80.22-5.9 79.84-3.95 79.84-2.4L79.84-2.4Q79.84-0.2 81.49 0.05L81.49 0.05Q82.99-0.15 84.34-0.7 85.69-1.25 86.74-2.1L86.74-2.1Q87.04-1.65 87.09-1.35L87.09-1.35Q86.79-0.9 86.07-0.3 85.34 0.3 84.49 0.88 83.64 1.45 82.84 1.85 82.04 2.25 81.64 2.3L81.64 2.3Q80.39 2.25 79.14 1.75 77.89 1.25 76.87 0.5 75.84-0.25 75.19-1.18 74.54-2.1 74.54-3L74.54-3Q74.54-4.2 74.87-6.03 75.19-7.85 75.79-10 76.39-12.15 77.19-14.5 77.99-16.85 78.94-19.15L78.94-19.15ZM119.89-19.9L119.89-19.9Q119.84-18.95 119.56-17.93 119.29-16.9 118.89-16.07 118.49-15.25 118.04-14.7 117.59-14.15 117.19-14.15L117.19-14.15Q116.64-14.2 116.54-14.9L116.54-14.9Q116.54-15.05 116.66-15.38 116.79-15.7 116.94-16.1 117.09-16.5 117.21-16.9 117.34-17.3 117.34-17.6L117.34-17.6Q117.34-18.3 117.01-18.78 116.69-19.25 116.14-19.25L116.14-19.25Q114.14-19.25 113.09-16.75 112.04-14.25 112.04-9.4L112.04-9.4Q112.04-8.9 112.09-8.8L112.09-8.8Q113.14-8.85 113.96-8.88 114.79-8.9 115.59-8.9L115.59-8.9Q115.64-8.8 115.64-8.5L115.64-8.5Q115.64-8.05 115.44-7.85L115.44-7.85Q114.29-7.6 113.61-7.43 112.94-7.25 112.59-7.1 112.24-6.95 112.16-6.78 112.09-6.6 112.09-6.3L112.09-6.3Q112.09-5.9 112.11-5.5 112.14-5.1 112.14-4.5L112.14-4.5Q112.14-0.3 109.86 2.25 107.59 4.8 103.54 5.2L103.54 5.2Q102.84 5.15 102.09 4.8 101.34 4.45 100.66 3.9 99.99 3.35 99.49 2.68 98.99 2 98.79 1.3L98.79 1.3Q98.79-0.6 99.59-2.33 100.39-4.05 101.76-5.38 103.14-6.7 105.01-7.53 106.89-8.35 109.09-8.5L109.09-8.5Q109.09-9.75 108.84-10.95 108.59-12.15 108.31-13.28 108.04-14.4 107.79-15.48 107.54-16.55 107.54-17.6L107.54-17.6Q107.54-18.95 108.09-20.28 108.64-21.6 109.54-22.73 110.44-23.85 111.64-24.65 112.84-25.45 114.14-25.75L114.14-25.75Q114.69-25.6 115.61-24.88 116.54-24.15 117.44-23.25 118.34-22.35 119.04-21.43 119.74-20.5 119.89-19.9ZM103.39 2.9L103.39 2.9Q104.59 2.4 105.66 1.45 106.74 0.5 107.54-0.7 108.34-1.9 108.81-3.25 109.29-4.6 109.29-5.9L109.29-5.9Q108.29-5.75 107.09-4.98 105.89-4.2 104.84-3.13 103.79-2.05 103.09-0.9 102.39 0.25 102.39 1.1L102.39 1.1Q102.39 2.2 103.39 2.9ZM137.19-20.2L137.19-20.2Q137.69-20.2 138.36-20.03 139.04-19.85 139.59-19.58 140.14-19.3 140.51-19 140.89-18.7 140.89-18.45L140.89-18.45Q139.89-16.35 139.04-14.23 138.19-12.1 137.59-10.15 136.99-8.2 136.66-6.5 136.34-4.8 136.34-3.55L136.34-3.55Q136.34-2.15 136.64-1.23 136.94-0.3 137.64 0.1L137.64 0.1Q137.04 0.5 136.09 0.75 135.14 1 134.39 1L134.39 1Q131.69 1 131.69-2.7L131.69-2.7Q131.69-5.55 133.59-10.5L133.59-10.5Q132.59-8.2 131.29-6.18 129.99-4.15 128.64-2.6 127.29-1.05 125.91-0.08 124.54 0.9 123.39 1.1L123.39 1.1Q121.54 1 120.39-0.68 119.24-2.35 119.24-4.95L119.24-4.95Q119.24-7.75 120.44-10.85 121.64-13.95 123.51-16.6 125.39-19.25 127.59-21.03 129.79-22.8 131.84-22.9L131.84-22.9Q132.34-22.75 132.96-22.3 133.59-21.85 134.16-21.25 134.74-20.65 135.14-20.03 135.54-19.4 135.59-18.95L135.59-18.95Q133.59-18.65 131.46-17 129.34-15.35 127.61-13.03 125.89-10.7 124.79-8.05 123.69-5.4 123.69-3.1L123.69-3.1Q123.69-2.15 124.39-1.9L124.39-1.9Q125.84-2.2 127.74-4.38 129.64-6.55 132.34-11.1L132.34-11.1Q132.84-12 133.46-13.1 134.09-14.2 134.74-15.4 135.39-16.6 136.01-17.82 136.64-19.05 137.19-20.2ZM145.43 14.45L145.43 14.45Q144.18 13.95 143.93 12.55L143.93 12.55Q143.73 11.2 142.23 10.35L142.23 10.35Q142.63 7.8 143.13 5.2 143.63 2.6 144.41-0.73 145.18-4.05 146.36-8.47 147.53-12.9 149.33-19.2L149.33-19.2Q147.68-19.2 146.73-19.15 145.78-19.1 144.88-18.95L144.88-18.95Q144.68-19.15 144.56-19.5 144.43-19.85 144.43-20.15L144.43-20.15Q144.93-20.35 146.48-20.68 148.03-21 149.88-21.25L149.88-21.25Q151.08-25.05 152.63-28.08 154.18-31.1 155.98-33.25 157.78-35.4 159.78-36.55 161.78-37.7 163.83-37.7L163.83-37.7Q164.43-37.7 164.98-37.63 165.53-37.55 165.83-37.55L165.83-37.55Q166.28-37.9 167.03-38.18 167.78-38.45 168.33-38.45L168.33-38.45Q168.93-38.45 169.88-37.8L169.88-37.8Q169.48-37.1 169.03-35.9 168.58-34.7 168.28-33.55L168.28-33.55Q167.03-29.85 165.63-28.75L165.63-28.75Q165.08-28.75 165.03-30.2L165.03-30.2Q164.98-31.25 164.73-32.25L164.73-32.25Q164.53-32.7 164.46-33.05 164.38-33.4 164.38-33.95L164.38-33.95Q164.38-34.25 164.43-34.68 164.48-35.1 164.63-36.1L164.63-36.1Q163.78-36.1 162.76-35.05 161.73-34 160.61-32.08 159.48-30.15 158.33-27.5 157.18-24.85 156.13-21.65L156.13-21.65 160.33-21.8Q160.58-21.55 160.76-20.68 160.93-19.8 160.98-18.85L160.98-18.85 155.48-19.15Q153.58-13.5 151.93-8.35 150.28-3.2 148.98 1.15 147.68 5.5 146.76 8.93 145.83 12.35 145.43 14.45ZM176.78-20.2L176.78-20.2Q177.28-20.2 177.96-20.03 178.63-19.85 179.18-19.58 179.73-19.3 180.11-19 180.48-18.7 180.48-18.45L180.48-18.45Q179.48-16.35 178.63-14.23 177.78-12.1 177.18-10.15 176.58-8.2 176.26-6.5 175.93-4.8 175.93-3.55L175.93-3.55Q175.93-2.15 176.23-1.23 176.53-0.3 177.23 0.1L177.23 0.1Q176.63 0.5 175.68 0.75 174.73 1 173.98 1L173.98 1Q171.28 1 171.28-2.7L171.28-2.7Q171.28-5.55 173.18-10.5L173.18-10.5Q172.18-8.2 170.88-6.18 169.58-4.15 168.23-2.6 166.88-1.05 165.51-0.08 164.13 0.9 162.98 1.1L162.98 1.1Q161.13 1 159.98-0.68 158.83-2.35 158.83-4.95L158.83-4.95Q158.83-7.75 160.03-10.85 161.23-13.95 163.11-16.6 164.98-19.25 167.18-21.03 169.38-22.8 171.43-22.9L171.43-22.9Q171.93-22.75 172.56-22.3 173.18-21.85 173.76-21.25 174.33-20.65 174.73-20.03 175.13-19.4 175.18-18.95L175.18-18.95Q173.18-18.65 171.06-17 168.93-15.35 167.21-13.03 165.48-10.7 164.38-8.05 163.28-5.4 163.28-3.1L163.28-3.1Q163.28-2.15 163.98-1.9L163.98-1.9Q165.43-2.2 167.33-4.38 169.23-6.55 171.93-11.1L171.93-11.1Q172.43-12 173.06-13.1 173.68-14.2 174.33-15.4 174.98-16.6 175.61-17.82 176.23-19.05 176.78-20.2ZM181.83-1L181.83-1Q182.08-2.45 182.7-4.83 183.33-7.2 184.18-9.88 185.03-12.55 185.98-15.25 186.93-17.95 187.83-20.1L187.83-20.1Q188.48-21.65 188.98-22.53 189.48-23.4 190.08-24L190.08-24Q190.78-23.9 191.53-23.65 192.28-23.4 192.98-23.05 193.68-22.7 194.23-22.33 194.78-21.95 195.08-21.6L195.08-21.6Q193.73-20 192.7-17.95 191.68-15.9 190.63-12.7L190.63-12.7Q193.33-15.1 195.4-17.3 197.48-19.5 199.28-22.2L199.28-22.2Q199.58-22.45 200.33-22.45L200.33-22.45Q201.03-22.45 201.68-22.23 202.33-22 202.58-21.6L202.58-21.6Q201.68-19.2 201.68-16.85L201.68-16.85Q201.68-14.65 202.33-13.55L202.33-13.55Q202.28-13.25 201.65-12.4 201.03-11.55 200.28-10.8L200.28-10.8Q198.93-11.5 197.88-12.73 196.83-13.95 196.33-15.4L196.33-15.4Q193.98-13.75 192.33-12.18 190.68-10.6 189.5-8.68 188.33-6.75 187.5-4.25 186.68-1.75 185.93 1.7L185.93 1.7Q185.48 1.65 184.85 1.38 184.23 1.1 183.6 0.7 182.98 0.3 182.48-0.15 181.98-0.6 181.83-1ZM203.23-3.35L203.23-3.35Q203.23-3.8 203.3-4.48 203.38-5.15 203.58-6.28 203.78-7.4 204.1-9 204.43-10.6 204.93-12.85L204.93-12.85Q205.03-13.35 205.38-14.45 205.73-15.55 206.3-16.78 206.88-18 207.7-19.15 208.53-20.3 209.68-20.85L209.68-20.85Q210.53-20.65 211.93-19.83 213.33-19 214.33-17.55L214.33-17.55Q213.18-16.25 212.4-14.95 211.63-13.65 211-12.25 210.38-10.85 209.85-9.35 209.33-7.85 208.68-6.2L208.68-6.2Q208.13-4.8 207.68-3.33 207.23-1.85 207.18-0.75L207.18-0.75Q207.18 0.15 207.15 0.53 207.13 0.9 206.88 0.9L206.88 0.9Q206.68 0.9 206.08 0.65 205.48 0.4 204.85-0.13 204.23-0.65 203.73-1.45 203.23-2.25 203.23-3.35ZM212.78-25.05L212.78-25.05Q212.78-25.35 212.93-25.95L212.93-25.95Q212.68-26.2 212.5-26.7 212.33-27.2 212.33-27.6L212.33-27.6Q212.33-28.05 212.45-28.83 212.58-29.6 212.78-30.5 212.98-31.4 213.28-32.38 213.58-33.35 213.88-34.15L213.88-34.15Q214.48-34.15 215.35-33.83 216.23-33.5 217.13-32.98 218.03-32.45 218.78-31.83 219.53-31.2 219.93-30.65L219.93-30.65Q219.38-30.1 218.48-29.13 217.58-28.15 216.73-27.08 215.88-26 215.18-25.05 214.48-24.1 214.28-23.7L214.28-23.7Q213.68-23.8 213.23-24.23 212.78-24.65 212.78-25.05Z" opacity="1" transform="matrix(1,0,0,1,0,0)" fill="#000000" class="undefined-text-1" data-fill-palette-color="secondary" id="text-1"></path></svg></g></svg></g></svg></g></svg></g><g transform="matrix(1,0,0,1,424.91783994772675,26.557732428091338)"><svg viewBox="0 0 244.43135999999998 60.531977524514765" height="60.531977524514765" width="244.43135999999998"><g><svg xmlns="http://www.w3.org/2000/svg" xmlns:xlink="http://www.w3.org/1999/xlink" version="1.1" x="0" y="0" viewBox="0 0 83.72500000000001 20.733999999999998" enable-background="new 0 0 83.725 20.735" xml:space="preserve" width="244.43135999999998" height="60.531977524514765" class="icon-icon-0" data-fill-palette-color="accent" id="icon-0"><path d="M79.616 9.347l2.805-3.525H57.486l-6.481-3.315h-6.406L39.768 0l-25.87 1.785-1.295 1.541 11.121 1.844L20.281 9.44H7.667l-4.446 5.647H0v2.275l6.593 3.372h61.075c3.573 0 6.381-1.155 8.37-3.617 1.959-2.427 4.923-6.11 4.923-6.11h1.336l1.428-1.661H79.616zM37.188 9.44c-2.54 0-13.769 0-13.769 0l3.082-3.804c0 0 8.527 1.379 10.897 1.774C38.939 7.667 38.729 9.44 37.188 9.44zM74.713 7.223l-1.685 2.124h-3.114l1.684-2.124H74.713zM64.903 7.223L63.542 8.92l-3.317-1.697H64.903zM49.85 7.661c0 0-5.122-0.811-8.728-1.441-1.642-0.287-1.75-2.011-0.012-2.011h4.19l6.729 3.452H49.85zM54.541 7.62L47.89 4.209h3.063l6.61 3.411H54.541zM64.994 9.347l1.702-2.124h3.116l-1.685 2.124H64.994zM74.814 9.347l1.685-2.124h3.018l-1.689 2.124H74.814z" fill="#000000" data-fill-palette-color="accent"></path></svg></g></svg></g></svg></g><defs></defs></svg><rect width="395.52" height="67.15453819011637" fill="none" stroke="none" visibility="hidden"></rect></g></svg></g></svg>