<svg xmlns="http://www.w3.org/2000/svg" version="1.1" xmlns:xlink="http://www.w3.org/1999/xlink" xmlns:svgjs="http://svgjs.dev/svgjs" width="1000" height="1000" viewBox="0 0 1000 1000"><rect width="1000" height="1000" fill="#ffffff"></rect><g transform="matrix(0.7,0,0,0.7,149.57575761777764,388.70313987223494)"><svg viewBox="0 0 396 126" data-background-color="#111111" preserveAspectRatio="xMidYMid meet" height="318" width="1000" xmlns="http://www.w3.org/2000/svg" xmlns:xlink="http://www.w3.org/1999/xlink"><g id="tight-bounds" transform="matrix(1,0,0,1,0.24000002377141527,-0.0017764707925778112)"><svg viewBox="0 0 395.52 126.00354804931634" height="126.00354804931634" width="395.52"><g><svg viewBox="0 0 564.2255961332227 179.74925923601" height="126.00354804931634" width="395.52"><g><rect width="5.86541334660939" height="130.71490993646168" x="410.8744852005481" y="24.517174649774162" fill="#000000" opacity="1" stroke-width="0" stroke="transparent" fill-opacity="1" class="rect-o-0" data-fill-palette-color="primary" rx="1%" id="o-0" data-palette-color="#ffffff"></rect></g><g transform="matrix(1,0,0,1,0,24.842336117277796)"><svg viewBox="0 0 395.52 130.0645870014544" height="130.0645870014544" width="395.52"><g id="textblocktransform"><svg viewBox="0 0 395.52 130.0645870014544" height="130.0645870014544" width="395.52" id="textblock"><g><svg viewBox="0 0 395.52 65.04043274432023" height="65.04043274432023" width="395.52"><g transform="matrix(1,0,0,1,0,0)"><svg width="395.52" viewBox="1.7000000476837158 -37.099998474121094 278.0799865722656 45.599998474121094" height="65.04043274432023" data-palette-color="#ffffff"><g class="undefined-text-0" data-fill-palette-color="primary" id="text-0"><path d="M5.8 0L1.7 0 14.3-36.8 19.4-36.8 32 0 27.9 0 24.2-10.5 9.4-10.5 5.8 0ZM16.85-33.3L10.4-14.1 23.2-14.1 16.85-33.3ZM59 8.5L59 8.5Q57.15 8.5 55.42 7.75 53.7 7 52.47 5.5 51.25 4 51 1.75L51 1.75 53.7 1.75Q54.3 3.7 55.8 4.58 57.3 5.45 58.95 5.45L58.95 5.45Q59.65 5.45 60.3 5.33 60.95 5.2 61.55 5L61.55 5 61.55 8.1Q60.95 8.25 60.32 8.38 59.7 8.5 59 8.5ZM50.85 0.3L50.85 0.3Q47.3 0.3 44.62-0.38 41.95-1.05 40.17-2.95 38.4-4.85 37.52-8.55 36.65-12.25 36.65-18.25L36.65-18.25Q36.65-24.25 37.55-27.98 38.45-31.7 40.25-33.68 42.05-35.65 44.7-36.38 47.35-37.1 50.85-37.1L50.85-37.1Q54.45-37.1 57.12-36.38 59.8-35.65 61.57-33.68 63.35-31.7 64.2-27.98 65.05-24.25 65.05-18.25L65.05-18.25Q65.05-12.25 64.17-8.55 63.3-4.85 61.52-2.95 59.75-1.05 57.1-0.38 54.45 0.3 50.85 0.3ZM50.85-3.25L50.85-3.25Q53.65-3.25 55.6-3.8 57.55-4.35 58.77-5.93 60-7.5 60.55-10.45 61.1-13.4 61.1-18.25L61.1-18.25Q61.1-23.3 60.52-26.35 59.95-29.4 58.72-30.95 57.5-32.5 55.57-33 53.65-33.5 50.85-33.5L50.85-33.5Q48.25-33.5 46.32-33 44.4-32.5 43.12-30.95 41.85-29.4 41.22-26.35 40.6-23.3 40.6-18.25L40.6-18.25Q40.6-13.4 41.12-10.45 41.65-7.5 42.85-5.93 44.05-4.35 46.02-3.8 48-3.25 50.85-3.25ZM84.9 0.3L84.9 0.3Q81.8 0.3 79.3-0.25 76.8-0.8 75.02-2.13 73.25-3.45 72.3-5.73 71.34-8 71.34-11.4L71.34-11.4 71.34-36.8 75.34-36.8 75.34-11.4Q75.34-8.25 76.47-6.5 77.59-4.75 79.75-4.03 81.9-3.3 84.9-3.3L84.9-3.3Q87.9-3.3 90.05-4.03 92.2-4.75 93.32-6.5 94.45-8.25 94.45-11.4L94.45-11.4 94.45-36.8 98.45-36.8 98.45-11.4Q98.45-8 97.5-5.73 96.55-3.45 94.77-2.13 93-0.8 90.5-0.25 88 0.3 84.9 0.3ZM107.59 0L103.49 0 116.09-36.8 121.19-36.8 133.79 0 129.69 0 125.99-10.5 111.19-10.5 107.59 0ZM118.64-33.3L112.19-14.1 124.99-14.1 118.64-33.3Z" fill="#000000" data-fill-palette-color="primary"></path><path d="M148.09 0.3L148.09 0.3Q146.99 0.3 145.47 0.23 143.94 0.15 142.34 0.03 140.74-0.1 139.32-0.25 137.89-0.4 136.94-0.6L136.94-0.6 136.94-3.65Q138.19-3.55 139.99-3.45 141.79-3.35 143.87-3.3 145.94-3.25 147.94-3.25L147.94-3.25Q150.19-3.25 151.99-3.7 153.79-4.15 154.87-5.35 155.94-6.55 155.94-8.8L155.94-8.8 155.94-11.3Q155.94-13.85 154.64-15.18 153.34-16.5 150.44-16.5L150.44-16.5 146.49-16.5Q141.94-16.5 139.37-18.5 136.79-20.5 136.79-25.4L136.79-25.4 136.79-27.5Q136.79-32.7 139.59-34.9 142.39-37.1 147.49-37.1L147.49-37.1Q149.09-37.1 151.09-36.93 153.09-36.75 154.97-36.52 156.84-36.3 158.09-36.05L158.09-36.05 158.09-33Q155.89-33.2 153.12-33.35 150.34-33.5 147.89-33.5L147.89-33.5Q145.64-33.5 143.99-32.98 142.34-32.45 141.47-31.13 140.59-29.8 140.59-27.35L140.59-27.35 140.59-25.65Q140.59-22.6 142.19-21.45 143.79-20.3 146.64-20.3L146.64-20.3 150.89-20.3Q153.94-20.3 155.89-19.2 157.84-18.1 158.79-16.18 159.74-14.25 159.74-11.75L159.74-11.75 159.74-8.9Q159.74-5.2 158.17-3.2 156.59-1.2 153.97-0.45 151.34 0.3 148.09 0.3ZM178.14 0L173.84 0 164.39-36.8 168.49-36.8 176.39-5.45 185.49-36.8 189.49-36.8 198.54-5.45 206.44-36.8 210.54-36.8 201.09 0 196.79 0 187.49-31.25 178.14 0ZM220.09 0L216.09 0 216.09-36.8 220.09-36.8 220.09 0ZM231.78 0L227.78 0 227.78-29.4Q227.78-31.55 228.41-32.98 229.03-34.4 230.08-35.23 231.13-36.05 232.43-36.43 233.73-36.8 235.03-36.8L235.03-36.8Q237.23-36.75 239.81-36.7 242.38-36.65 245.11-36.58 247.83-36.5 250.43-36.3L250.43-36.3 250.43-33.15 235.98-33.15Q233.98-33.15 232.88-32.05 231.78-30.95 231.78-28.8L231.78-28.8 231.78-19.25 248.23-19 248.23-15.95 231.78-15.7 231.78 0ZM268.43 0L264.43 0 264.43-33.2 253.08-33.2 253.08-36.8 279.78-36.8 279.78-33.2 268.43-33.2 268.43 0Z" fill="#000000" data-fill-palette-color="secondary"></path></g></svg></g></svg></g><g transform="matrix(1,0,0,1,163.310208,80.39491794486837)"><svg viewBox="0 0 232.209792 49.66966905658605" height="49.66966905658605" width="232.209792"><g transform="matrix(1,0,0,1,0,0)"><svg width="232.209792" viewBox="1.75 -45.150001525878906 212.92999267578125 45.55000305175781" height="49.66966905658605" data-palette-color="#e5dd94"><path d="M15.9 0.4Q12.3 0.4 10.75-3.9L10.75-3.9 10.75 0 1.75 0 1.75-43.2 10.75-43.2 10.75-34.85Q12.85-37 15.65-37L15.65-37Q19.9-37 21.75-34.48 23.6-31.95 23.6-27.2L23.6-27.2 23.6-9.55Q23.6-5.05 21.7-2.33 19.8 0.4 15.9 0.4L15.9 0.4ZM12.95-6.4Q13.85-6.4 14.23-6.98 14.6-7.55 14.68-8.43 14.75-9.3 14.75-11.15L14.75-11.15 14.75-26.4Q14.75-28.35 14.4-29.3 14.05-30.25 12.9-30.25L12.9-30.25Q11.65-30.25 11.2-29.3 10.75-28.35 10.75-26.5L10.75-26.5 10.75-11.15Q10.75-8.75 11.15-7.58 11.55-6.4 12.95-6.4L12.95-6.4ZM37.45 0.4Q26.5 0.4 26.5-10.95L26.5-10.95 26.5-25.65Q26.5-30.85 29.42-33.93 32.35-37 37.45-37L37.45-37Q42.55-37 45.47-33.93 48.4-30.85 48.4-25.65L48.4-25.65 48.4-10.95Q48.4 0.4 37.45 0.4L37.45 0.4ZM37.45-6.35Q38.5-6.35 39-7.1 39.5-7.85 39.5-9.15L39.5-9.15 39.5-27.05Q39.5-30.25 37.45-30.25L37.45-30.25Q35.4-30.25 35.4-27.05L35.4-27.05 35.4-9.15Q35.4-7.85 35.9-7.1 36.4-6.35 37.45-6.35L37.45-6.35ZM58.3 0.4Q54.05 0.4 52.47-2.43 50.9-5.25 50.9-10.5L50.9-10.5Q50.9-14.8 52.02-17.1 53.15-19.4 55.15-20.48 57.15-21.55 61.25-22.85L61.25-22.85 63.65-23.65 63.65-23.75 63.65-27.4Q63.65-28.85 63.07-29.63 62.5-30.4 61.7-30.4L61.7-30.4Q61-30.4 60.47-29.75 59.95-29.1 59.95-28L59.95-28 59.95-25.8 51.45-25.8 51.45-27Q51.45-32.4 53.97-34.7 56.5-37 62.2-37L62.2-37Q66.75-37 69.59-34.63 72.45-32.25 72.45-27.9L72.45-27.9 72.45 0 63.75 0 63.75-4.35Q63.1-2.1 61.67-0.85 60.25 0.4 58.3 0.4L58.3 0.4ZM61.75-6.4Q62.75-6.4 63.17-7.23 63.6-8.05 63.6-9.25L63.6-9.25 63.6-19.45Q61.65-18.7 60.72-17.55 59.8-16.4 59.8-14.35L59.8-14.35 59.8-9.65Q59.8-6.4 61.75-6.4L61.75-6.4ZM83.34 0.4Q79.89 0.4 78.59-1.05 77.29-2.5 77.29-5.7L77.29-5.7 77.29-28.55 74.84-28.55 74.84-35.2 77.29-35.2 77.29-42.95 85.79-42.95 85.79-35.2 88.29-35.2 88.29-28.55 85.79-28.55 85.79-8Q85.79-7.05 85.94-6.6 86.09-6.15 86.74-6.15L86.74-6.15Q87.24-6.15 87.69-6.2 88.14-6.25 88.29-6.25L88.29-6.25 88.29-0.25Q87.54-0.05 86.12 0.18 84.69 0.4 83.34 0.4L83.34 0.4ZM112.79 0.4Q101.94 0.4 101.94-10.6L101.94-10.6 101.99-13.5 110.74-13.5 110.79-9.2Q110.79-7.9 111.29-7.23 111.79-6.55 112.94-6.55L112.94-6.55Q114.69-6.55 114.69-9.4L114.69-9.4Q114.69-11.5 113.86-12.7 113.04-13.9 111.24-15.25L111.24-15.25 106.59-18.85Q104.19-20.7 103.14-22.68 102.09-24.65 102.09-28.25L102.09-28.25Q102.09-31.05 103.56-33.02 105.04-35 107.49-36 109.94-37 112.94-37L112.94-37Q123.59-37 123.59-26.4L123.59-26.4 123.59-25.7 114.54-25.7 114.54-27.1Q114.54-28.4 114.11-29.33 113.69-30.25 112.69-30.25L112.69-30.25Q111.79-30.25 111.31-29.73 110.84-29.2 110.84-28.3L110.84-28.3Q110.84-26.3 112.39-25.2L112.39-25.2 117.79-21.25Q120.69-19.1 122.24-16.57 123.79-14.05 123.79-10.2L123.79-10.2Q123.79-5.1 120.89-2.35 117.99 0.4 112.79 0.4L112.79 0.4ZM133.14 0.4Q128.89 0.4 127.31-2.43 125.74-5.25 125.74-10.5L125.74-10.5Q125.74-14.8 126.86-17.1 127.99-19.4 129.99-20.48 131.99-21.55 136.09-22.85L136.09-22.85 138.49-23.65 138.49-23.75 138.49-27.4Q138.49-28.85 137.91-29.63 137.34-30.4 136.54-30.4L136.54-30.4Q135.84-30.4 135.31-29.75 134.79-29.1 134.79-28L134.79-28 134.79-25.8 126.29-25.8 126.29-27Q126.29-32.4 128.81-34.7 131.34-37 137.04-37L137.04-37Q141.59-37 144.44-34.63 147.29-32.25 147.29-27.9L147.29-27.9 147.29 0 138.59 0 138.59-4.35Q137.94-2.1 136.51-0.85 135.09 0.4 133.14 0.4L133.14 0.4ZM136.59-6.4Q137.59-6.4 138.01-7.23 138.44-8.05 138.44-9.25L138.44-9.25 138.44-19.45Q136.49-18.7 135.56-17.55 134.64-16.4 134.64-14.35L134.64-14.35 134.64-9.65Q134.64-6.4 136.59-6.4L136.59-6.4ZM151.43 0L151.43-28.35 149.88-28.35 149.93-35 151.43-35 151.43-37.5Q151.43-43.4 157.33-43.4L157.33-43.4Q160.13-43.4 161.83-42.7L161.83-42.7 161.83-37.3Q161.33-37.45 161.03-37.45L161.03-37.45Q160.33-37.45 160.13-36.95 159.93-36.45 159.93-35.45L159.93-35.45 159.93-35 161.83-35 161.83-28.25 160.13-28.25 160.13 0 151.43 0ZM171.28 0.4Q167.03 0.4 165.46-2.43 163.88-5.25 163.88-10.5L163.88-10.5Q163.88-14.8 165.01-17.1 166.13-19.4 168.13-20.48 170.13-21.55 174.23-22.85L174.23-22.85 176.63-23.65 176.63-23.75 176.63-27.4Q176.63-28.85 176.06-29.63 175.48-30.4 174.68-30.4L174.68-30.4Q173.98-30.4 173.46-29.75 172.93-29.1 172.93-28L172.93-28 172.93-25.8 164.43-25.8 164.43-27Q164.43-32.4 166.96-34.7 169.48-37 175.18-37L175.18-37Q179.73-37 182.58-34.63 185.43-32.25 185.43-27.9L185.43-27.9 185.43 0 176.73 0 176.73-4.35Q176.08-2.1 174.66-0.85 173.23 0.4 171.28 0.4L171.28 0.4ZM174.73-6.4Q175.73-6.4 176.16-7.23 176.58-8.05 176.58-9.25L176.58-9.25 176.58-19.45Q174.63-18.7 173.71-17.55 172.78-16.4 172.78-14.35L172.78-14.35 172.78-9.65Q172.78-6.4 174.73-6.4L174.73-6.4ZM188.78 0L188.78-36.6 197.53-36.6 197.53-32.55Q198.18-34.7 199.8-35.88 201.43-37.05 203.83-37.05L203.83-37.05 203.83-29.75Q201.98-29.75 199.75-29.23 197.53-28.7 197.53-28L197.53-28 197.53 0 188.78 0ZM214.68-39.05L205.93-39.05 205.93-45.15 214.68-45.15 214.68-39.05ZM214.68 0L205.93 0 205.93-36.6 214.68-36.6 214.68 0Z" opacity="1" transform="matrix(1,0,0,1,0,0)" fill="#000000" class="undefined-text-1" data-fill-palette-color="secondary" id="text-1"></path></svg></g></svg></g></svg></g></svg></g><g transform="matrix(1,0,0,1,432.09438374770565,0)"><svg viewBox="0 0 132.131212385517 179.74925923601" height="179.74925923601" width="132.131212385517"><g><svg xmlns="http://www.w3.org/2000/svg" xmlns:xlink="http://www.w3.org/1999/xlink" version="1.1" x="0" y="0" viewBox="17.60000228881836 5.77500057220459 65 88.42499542236328" enable-background="new 0 0 100 100" xml:space="preserve" height="179.74925923601" width="132.131212385517" class="icon-icon-0" data-fill-palette-color="accent" id="icon-0"><g fill="#62f5ff" data-fill-palette-color="accent"><path fill="#000000" d="M51.2 6.3c-0.6-0.7-1.7-0.7-2.3 0-1.3 1.5-31.3 38-31.3 55.4 0 17.9 14.6 32.5 32.5 32.5s32.5-14.6 32.5-32.5C82.5 44.3 52.4 7.9 51.2 6.3zM50 91.2c-16.3 0-29.5-13.2-29.5-29.5 0-14.5 23.9-45.1 29.5-52.1 5.6 7 29.5 37.6 29.5 52.1C79.5 78 66.3 91.2 50 91.2z" data-fill-palette-color="accent"></path><path fill="#000000" d="M74 60.6c-0.8 0-1.5 0.7-1.5 1.5 0 12.4-10.1 22.5-22.5 22.5-0.8 0-1.5 0.7-1.5 1.5s0.7 1.5 1.5 1.5c14.1 0 25.5-11.4 25.5-25.5C75.5 61.3 74.8 60.6 74 60.6z" data-fill-palette-color="accent"></path></g></svg></g></svg></g></svg></g><defs></defs></svg><rect width="395.52" height="126.00354804931634" fill="none" stroke="none" visibility="hidden"></rect></g></svg></g></svg>