<svg xmlns="http://www.w3.org/2000/svg" version="1.1" xmlns:xlink="http://www.w3.org/1999/xlink" xmlns:svgjs="http://svgjs.dev/svgjs" width="1000" height="1000" viewBox="0 0 1000 1000"><rect width="1000" height="1000" fill="#ffffff"></rect><g transform="matrix(0.7,0,0,0.7,149.57575757575756,443.59796048902956)"><svg viewBox="0 0 396 64" data-background-color="#fff6c1" preserveAspectRatio="xMidYMid meet" height="161" width="1000" xmlns="http://www.w3.org/2000/svg" xmlns:xlink="http://www.w3.org/1999/xlink"><g id="tight-bounds" transform="matrix(1,0,0,1,0.2400000000000091,0.029556301216132397)"><svg viewBox="0 0 395.52 63.940885812487956" height="63.940885812487956" width="395.52"><g><svg viewBox="0 0 670.0861186770798 108.32802386444278" height="63.940885812487956" width="395.52"><g><rect width="4.832694296660141" height="101.06614127940051" x="408.1710321902098" y="3.630941292521136" fill="#000000" opacity="1" stroke-width="0" stroke="transparent" fill-opacity="1" class="rect-o-0" data-fill-palette-color="primary" rx="1%" id="o-0" data-palette-color="#112d4e"></rect></g><g transform="matrix(1,0,0,1,0,3.8823496041614334)"><svg viewBox="0 0 395.52000000000004 100.56332465611992" height="100.56332465611992" width="395.52000000000004"><g id="textblocktransform"><svg viewBox="0 0 395.52000000000004 100.56332465611992" height="100.56332465611992" width="395.52000000000004" id="textblock"><g><svg viewBox="0 0 395.52000000000004 53.58881118881119" height="53.58881118881119" width="395.52000000000004"><g transform="matrix(1,0,0,1,0,0)"><svg width="395.52000000000004" viewBox="0.699999988079071 -35.5 285.22998046875 38.75" height="53.58881118881119" data-palette-color="#112d4e"><g class="undefined-text-0" data-fill-palette-color="primary" id="text-0"><path d="M6.1 0L1.75 0Q1.35 0 1.03-0.3 0.7-0.6 0.7-1.05L0.7-1.05Q0.7-1.25 0.8-1.5L0.8-1.5 12.85-33.75Q13-34.25 13.43-34.63 13.85-35 14.6-35L14.6-35 20.05-35Q20.8-35 21.2-34.63 21.6-34.25 21.8-33.75L21.8-33.75 33.85-1.5Q33.9-1.25 33.9-1.05L33.9-1.05Q33.9-0.6 33.6-0.3 33.3 0 32.9 0L32.9 0 28.55 0Q27.85 0 27.53-0.33 27.2-0.65 27.1-0.95L27.1-0.95 24.75-7.05 9.9-7.05 7.55-0.95Q7.45-0.65 7.13-0.33 6.8 0 6.1 0L6.1 0ZM17.3-28.25L11.65-12.8 23-12.8 17.3-28.25ZM65.65 3.25L61 3.25Q60.3 3.25 59.87 2.83 59.45 2.4 59.2 2.1L59.2 2.1 57.35-0.4Q55 0.5 52 0.5L52 0.5Q47.55 0.5 44.32-0.98 41.1-2.45 39.32-5.53 37.55-8.6 37.35-13.2L37.35-13.2Q37.3-15.35 37.3-17.45 37.3-19.55 37.35-21.75L37.35-21.75Q37.55-26.3 39.37-29.35 41.2-32.4 44.45-33.95 47.7-35.5 52-35.5L52-35.5Q56.3-35.5 59.55-33.95 62.8-32.4 64.65-29.35 66.5-26.3 66.6-21.75L66.6-21.75Q66.7-19.55 66.7-17.45 66.7-15.35 66.6-13.2L66.6-13.2Q66.35-6.65 63-3.25L63-3.25 66.5 1.7Q66.55 1.75 66.6 1.88 66.65 2 66.65 2.2L66.65 2.2Q66.7 2.65 66.37 2.95 66.05 3.25 65.65 3.25L65.65 3.25ZM52-5.25L52-5.25Q55.2-5.25 57.25-7.18 59.3-9.1 59.45-13.45L59.45-13.45Q59.55-15.65 59.55-17.53 59.55-19.4 59.45-21.55L59.45-21.55Q59.4-24.45 58.4-26.28 57.4-28.1 55.77-28.93 54.15-29.75 52-29.75L52-29.75Q49.9-29.75 48.25-28.93 46.6-28.1 45.62-26.28 44.65-24.45 44.5-21.55L44.5-21.55Q44.45-19.4 44.45-17.53 44.45-15.65 44.5-13.45L44.5-13.45Q44.7-9.1 46.75-7.18 48.8-5.25 52-5.25ZM87.25 0.5L87.25 0.5Q82.9 0.5 79.7-0.98 76.5-2.45 74.75-5.53 73-8.6 73-13.4L73-13.4 73-33.75Q73-34.3 73.35-34.65 73.7-35 74.2-35L74.2-35 78.75-35Q79.3-35 79.62-34.65 79.95-34.3 79.95-33.75L79.95-33.75 79.95-13.4Q79.95-9.3 81.9-7.33 83.85-5.35 87.25-5.35L87.25-5.35Q90.65-5.35 92.57-7.33 94.5-9.3 94.5-13.4L94.5-13.4 94.5-33.75Q94.5-34.3 94.85-34.65 95.2-35 95.75-35L95.75-35 100.25-35Q100.8-35 101.12-34.65 101.45-34.3 101.45-33.75L101.45-33.75 101.45-13.4Q101.45-8.6 99.72-5.53 98-2.45 94.82-0.98 91.65 0.5 87.25 0.5ZM111.14 0L106.79 0Q106.39 0 106.07-0.3 105.74-0.6 105.74-1.05L105.74-1.05Q105.74-1.25 105.84-1.5L105.84-1.5 117.89-33.75Q118.04-34.25 118.47-34.63 118.89-35 119.64-35L119.64-35 125.09-35Q125.84-35 126.24-34.63 126.64-34.25 126.84-33.75L126.84-33.75 138.89-1.5Q138.94-1.25 138.94-1.05L138.94-1.05Q138.94-0.6 138.64-0.3 138.34 0 137.94 0L137.94 0 133.59 0Q132.89 0 132.57-0.33 132.24-0.65 132.14-0.95L132.14-0.95 129.79-7.05 114.94-7.05 112.59-0.95Q112.49-0.65 112.17-0.33 111.84 0 111.14 0L111.14 0ZM122.34-28.25L116.69-12.8 128.04-12.8 122.34-28.25Z" fill="#000000" data-fill-palette-color="primary"></path><path d="M154.99 0.5L154.99 0.5Q150.34 0.5 147.22-0.88 144.09-2.25 142.47-4.48 140.84-6.7 140.74-9.15L140.74-9.15Q140.74-9.6 141.04-9.9 141.34-10.2 141.79-10.2L141.79-10.2 146.24-10.2Q146.89-10.2 147.22-9.93 147.54-9.65 147.79-9.25L147.79-9.25Q148.09-8.3 148.94-7.38 149.79-6.45 151.27-5.85 152.74-5.25 154.99-5.25L154.99-5.25Q158.59-5.25 160.37-6.45 162.14-7.65 162.14-9.7L162.14-9.7Q162.14-11.15 161.19-12.03 160.24-12.9 158.27-13.63 156.29-14.35 153.04-15.15L153.04-15.15Q149.29-16.05 146.77-17.32 144.24-18.6 142.97-20.55 141.69-22.5 141.69-25.5L141.69-25.5Q141.69-28.4 143.27-30.65 144.84-32.9 147.77-34.2 150.69-35.5 154.74-35.5L154.74-35.5Q157.99-35.5 160.49-34.63 162.99-33.75 164.64-32.33 166.29-30.9 167.17-29.28 168.04-27.65 168.09-26.1L168.09-26.1Q168.09-25.7 167.82-25.38 167.54-25.05 167.04-25.05L167.04-25.05 162.39-25.05Q161.99-25.05 161.59-25.25 161.19-25.45 160.94-26L160.94-26Q160.64-27.55 158.99-28.65 157.34-29.75 154.74-29.75L154.74-29.75Q152.04-29.75 150.39-28.75 148.74-27.75 148.74-25.65L148.74-25.65Q148.74-24.25 149.57-23.33 150.39-22.4 152.22-21.7 154.04-21 157.04-20.2L157.04-20.2Q161.29-19.25 163.99-18 166.69-16.75 167.94-14.83 169.19-12.9 169.19-9.95L169.19-9.95Q169.19-6.65 167.42-4.33 165.64-2 162.44-0.75 159.24 0.5 154.99 0.5ZM184.04 0L180.69 0Q179.94 0 179.51-0.43 179.09-0.85 178.94-1.5L178.94-1.5 172.99-33.55Q172.99-33.7 172.96-33.8 172.94-33.9 172.94-33.95L172.94-33.95Q172.94-34.4 173.26-34.7 173.59-35 173.99-35L173.99-35 178.39-35Q179.64-35 179.79-34L179.79-34 183.94-11.35 188.44-26Q188.59-26.4 188.96-26.83 189.34-27.25 190.09-27.25L190.09-27.25 192.79-27.25Q193.59-27.25 193.94-26.83 194.29-26.4 194.39-26L194.39-26 198.94-11.4 203.09-34Q203.24-35 204.49-35L204.49-35 208.89-35Q209.29-35 209.59-34.7 209.89-34.4 209.89-33.95L209.89-33.95Q209.89-33.9 209.89-33.8 209.89-33.7 209.84-33.55L209.84-33.55 203.89-1.5Q203.79-0.85 203.34-0.43 202.89 0 202.14 0L202.14 0 198.79 0Q198.04 0 197.61-0.4 197.19-0.8 197.04-1.25L197.04-1.25 191.44-17.95 185.84-1.25Q185.64-0.8 185.24-0.4 184.84 0 184.04 0L184.04 0ZM221.64 0L216.94 0Q216.44 0 216.09-0.35 215.74-0.7 215.74-1.2L215.74-1.2 215.74-33.8Q215.74-34.3 216.09-34.65 216.44-35 216.94-35L216.94-35 221.64-35Q222.19-35 222.51-34.65 222.84-34.3 222.84-33.8L222.84-33.8 222.84-1.2Q222.84-0.7 222.51-0.35 222.19 0 221.64 0L221.64 0ZM236.28 0L231.88 0Q231.38 0 231.03-0.35 230.68-0.7 230.68-1.2L230.68-1.2 230.68-33.75Q230.68-34.3 231.03-34.65 231.38-35 231.88-35L231.88-35 253.58-35Q254.13-35 254.48-34.65 254.83-34.3 254.83-33.75L254.83-33.75 254.83-30.25Q254.83-29.7 254.48-29.38 254.13-29.05 253.58-29.05L253.58-29.05 237.53-29.05 237.53-19.55 252.58-19.55Q253.13-19.55 253.48-19.2 253.83-18.85 253.83-18.3L253.83-18.3 253.83-14.8Q253.83-14.3 253.48-13.95 253.13-13.6 252.58-13.6L252.58-13.6 237.53-13.6 237.53-1.2Q237.53-0.7 237.18-0.35 236.83 0 236.28 0L236.28 0ZM274.23 0L269.63 0Q269.13 0 268.78-0.35 268.43-0.7 268.43-1.2L268.43-1.2 268.43-28.85 259.18-28.85Q258.68-28.85 258.33-29.2 257.98-29.55 257.98-30.05L257.98-30.05 257.98-33.75Q257.98-34.3 258.33-34.65 258.68-35 259.18-35L259.18-35 284.68-35Q285.23-35 285.58-34.65 285.93-34.3 285.93-33.75L285.93-33.75 285.93-30.05Q285.93-29.55 285.58-29.2 285.23-28.85 284.68-28.85L284.68-28.85 275.48-28.85 275.48-1.2Q275.48-0.7 275.13-0.35 274.78 0 274.23 0L274.23 0Z" fill="#000000" data-fill-palette-color="secondary"></path></g></svg></g></svg></g><g transform="matrix(1,0,0,1,163.31020800000002,66.23984337902098)"><svg viewBox="0 0 232.20979200000002 34.323481277098935" height="34.323481277098935" width="232.20979200000002"><g transform="matrix(1,0,0,1,0,0)"><svg width="232.20979200000002" viewBox="3.3499999046325684 -37 253.67999267578125 37.5" height="34.323481277098935" data-palette-color="#a53655"><path d="M17.7 0.5L17.7 0.5Q14.8 0.5 12.88-0.5 10.95-1.5 9.7-3.05L9.7-3.05 9.7-1.2Q9.7-0.7 9.38-0.35 9.05 0 8.5 0L8.5 0 4.55 0Q4.05 0 3.7-0.35 3.35-0.7 3.35-1.2L3.35-1.2 3.35-34.3Q3.35-34.8 3.7-35.15 4.05-35.5 4.55-35.5L4.55-35.5 8.8-35.5Q9.35-35.5 9.68-35.15 10-34.8 10-34.3L10-34.3 10-23.2Q11.25-24.65 13.13-25.58 15-26.5 17.7-26.5L17.7-26.5Q20.35-26.5 22.3-25.6 24.25-24.7 25.58-23.08 26.9-21.45 27.6-19.3 28.3-17.15 28.35-14.65L28.35-14.65Q28.4-13.75 28.4-13.03 28.4-12.3 28.35-11.4L28.35-11.4Q28.25-8.8 27.55-6.63 26.85-4.45 25.55-2.85 24.25-1.25 22.3-0.38 20.35 0.5 17.7 0.5ZM15.85-4.85L15.85-4.85Q18-4.85 19.2-5.78 20.4-6.7 20.95-8.2 21.5-9.7 21.6-11.5L21.6-11.5Q21.65-13 21.6-14.5L21.6-14.5Q21.5-16.3 20.95-17.8 20.4-19.3 19.2-20.23 18-21.15 15.85-21.15L15.85-21.15Q13.85-21.15 12.6-20.25 11.35-19.35 10.7-17.98 10.05-16.6 10-15.1L10-15.1Q9.95-14.2 9.95-13.18 9.95-12.15 10-11.25L10-11.25Q10.1-9.7 10.68-8.22 11.25-6.75 12.53-5.8 13.8-4.85 15.85-4.85ZM45.45 0.5L45.45 0.5Q41.45 0.5 38.72-0.9 36-2.3 34.57-4.85 33.15-7.4 32.95-10.8L32.95-10.8Q32.9-11.7 32.9-13 32.9-14.3 32.95-15.2L32.95-15.2Q33.15-18.65 34.62-21.18 36.1-23.7 38.82-25.1 41.55-26.5 45.45-26.5L45.45-26.5Q49.35-26.5 52.07-25.1 54.8-23.7 56.27-21.18 57.75-18.65 57.95-15.2L57.95-15.2Q58-14.3 58-13 58-11.7 57.95-10.8L57.95-10.8Q57.75-7.4 56.32-4.85 54.9-2.3 52.17-0.9 49.45 0.5 45.45 0.5ZM45.45-4.45L45.45-4.45Q48.1-4.45 49.55-6.13 51-7.8 51.15-11.05L51.15-11.05Q51.2-11.8 51.2-13 51.2-14.2 51.15-14.95L51.15-14.95Q51-18.2 49.55-19.88 48.1-21.55 45.45-21.55L45.45-21.55Q42.8-21.55 41.35-19.88 39.9-18.2 39.75-14.95L39.75-14.95Q39.7-14.2 39.7-13 39.7-11.8 39.75-11.05L39.75-11.05Q39.9-7.8 41.35-6.13 42.8-4.45 45.45-4.45ZM71.09 0.5L71.09 0.5Q68.5 0.5 66.4-0.53 64.3-1.55 63.07-3.28 61.85-5 61.85-7.15L61.85-7.15Q61.85-10.65 64.7-12.73 67.55-14.8 72.15-15.5L72.15-15.5 79-16.5 79-17.55Q79-19.65 77.95-20.8 76.9-21.95 74.34-21.95L74.34-21.95Q72.55-21.95 71.42-21.23 70.3-20.5 69.75-19.3L69.75-19.3Q69.34-18.65 68.59-18.65L68.59-18.65 64.65-18.65Q64.09-18.65 63.82-18.95 63.55-19.25 63.55-19.75L63.55-19.75Q63.6-20.55 64.22-21.7 64.84-22.85 66.12-23.93 67.4-25 69.45-25.75 71.5-26.5 74.4-26.5L74.4-26.5Q77.55-26.5 79.72-25.73 81.9-24.95 83.2-23.65 84.5-22.35 85.09-20.6 85.7-18.85 85.7-16.9L85.7-16.9 85.7-1.2Q85.7-0.7 85.34-0.35 85 0 84.5 0L84.5 0 80.45 0Q79.9 0 79.57-0.35 79.25-0.7 79.25-1.2L79.25-1.2 79.25-3.15Q78.59-2.25 77.5-1.4 76.4-0.55 74.82-0.03 73.25 0.5 71.09 0.5ZM72.8-4.25L72.8-4.25Q74.55-4.25 75.97-5 77.4-5.75 78.22-7.33 79.05-8.9 79.05-11.3L79.05-11.3 79.05-12.35 74.05-11.55Q71.09-11.1 69.65-10.1 68.2-9.1 68.2-7.65L68.2-7.65Q68.2-6.55 68.87-5.78 69.55-5 70.59-4.63 71.65-4.25 72.8-4.25ZM107.89 0L103.84 0Q100.84 0 98.79-1.05 96.74-2.1 95.74-4.17 94.74-6.25 94.74-9.35L94.74-9.35 94.74-20.7 90.79-20.7Q90.29-20.7 89.94-21.05 89.59-21.4 89.59-21.95L89.59-21.95 89.59-24.8Q89.59-25.3 89.94-25.65 90.29-26 90.79-26L90.79-26 94.74-26 94.74-34.3Q94.74-34.8 95.07-35.15 95.39-35.5 95.94-35.5L95.94-35.5 99.99-35.5Q100.49-35.5 100.84-35.15 101.19-34.8 101.19-34.3L101.19-34.3 101.19-26 107.44-26Q107.94-26 108.29-25.65 108.64-25.3 108.64-24.8L108.64-24.8 108.64-21.95Q108.64-21.4 108.29-21.05 107.94-20.7 107.44-20.7L107.44-20.7 101.19-20.7 101.19-9.85Q101.19-7.8 101.92-6.65 102.64-5.5 104.44-5.5L104.44-5.5 107.89-5.5Q108.39-5.5 108.74-5.15 109.09-4.8 109.09-4.3L109.09-4.3 109.09-1.2Q109.09-0.7 108.74-0.35 108.39 0 107.89 0L107.89 0ZM134.84 0.5L134.84 0.5Q131.84 0.5 129.71-0.2 127.59-0.9 126.24-1.95 124.89-3 124.24-4.05 123.59-5.1 123.54-5.8L123.54-5.8Q123.49-6.35 123.86-6.68 124.24-7 124.69-7L124.69-7 128.64-7Q128.84-7 128.99-6.95 129.14-6.9 129.39-6.65L129.39-6.65Q130.04-6.1 130.76-5.5 131.49-4.9 132.49-4.48 133.49-4.05 134.99-4.05L134.99-4.05Q136.94-4.05 138.26-4.83 139.59-5.6 139.59-7.05L139.59-7.05Q139.59-8.1 139.01-8.75 138.44-9.4 136.89-9.93 135.34-10.45 132.49-11.05L132.49-11.05Q129.69-11.7 127.84-12.7 125.99-13.7 125.09-15.2 124.19-16.7 124.19-18.7L124.19-18.7Q124.19-20.65 125.36-22.43 126.54-24.2 128.86-25.35 131.19-26.5 134.64-26.5L134.64-26.5Q137.34-26.5 139.34-25.83 141.34-25.15 142.66-24.15 143.99-23.15 144.69-22.13 145.39-21.1 145.44-20.35L145.44-20.35Q145.49-19.8 145.14-19.48 144.79-19.15 144.34-19.15L144.34-19.15 140.64-19.15Q140.39-19.15 140.19-19.25 139.99-19.35 139.79-19.5L139.79-19.5Q139.24-20 138.59-20.58 137.94-21.15 137.01-21.55 136.09-21.95 134.59-21.95L134.59-21.95Q132.69-21.95 131.69-21.13 130.69-20.3 130.69-19.05L130.69-19.05Q130.69-18.2 131.16-17.57 131.64-16.95 133.09-16.4 134.54-15.85 137.49-15.25L137.49-15.25Q140.84-14.65 142.81-13.48 144.79-12.3 145.61-10.78 146.44-9.25 146.44-7.4L146.44-7.4Q146.44-5.15 145.11-3.35 143.79-1.55 141.21-0.53 138.64 0.5 134.84 0.5ZM159.14 0.5L159.14 0.5Q156.54 0.5 154.44-0.53 152.34-1.55 151.11-3.28 149.89-5 149.89-7.15L149.89-7.15Q149.89-10.65 152.74-12.73 155.59-14.8 160.19-15.5L160.19-15.5 167.04-16.5 167.04-17.55Q167.04-19.65 165.99-20.8 164.94-21.95 162.39-21.95L162.39-21.95Q160.59-21.95 159.46-21.23 158.34-20.5 157.79-19.3L157.79-19.3Q157.39-18.65 156.64-18.65L156.64-18.65 152.69-18.65Q152.14-18.65 151.86-18.95 151.59-19.25 151.59-19.75L151.59-19.75Q151.64-20.55 152.26-21.7 152.89-22.85 154.16-23.93 155.44-25 157.49-25.75 159.54-26.5 162.44-26.5L162.44-26.5Q165.59-26.5 167.76-25.73 169.94-24.95 171.24-23.65 172.54-22.35 173.14-20.6 173.74-18.85 173.74-16.9L173.74-16.9 173.74-1.2Q173.74-0.7 173.39-0.35 173.04 0 172.54 0L172.54 0 168.49 0Q167.94 0 167.61-0.35 167.29-0.7 167.29-1.2L167.29-1.2 167.29-3.15Q166.64-2.25 165.54-1.4 164.44-0.55 162.86-0.03 161.29 0.5 159.14 0.5ZM160.84-4.25L160.84-4.25Q162.59-4.25 164.01-5 165.44-5.75 166.26-7.33 167.09-8.9 167.09-11.3L167.09-11.3 167.09-12.35 162.09-11.55Q159.14-11.1 157.69-10.1 156.24-9.1 156.24-7.65L156.24-7.65Q156.24-6.55 156.91-5.78 157.59-5 158.64-4.63 159.69-4.25 160.84-4.25ZM188.23 0L184.13 0Q183.63 0 183.28-0.35 182.93-0.7 182.93-1.2L182.93-1.2 182.93-20.7 178.88-20.7Q178.38-20.7 178.03-21.05 177.68-21.4 177.68-21.95L177.68-21.95 177.68-24.8Q177.68-25.3 178.03-25.65 178.38-26 178.88-26L178.88-26 182.93-26 182.93-28.05Q182.93-31.05 184.03-33.02 185.13-35 187.28-36 189.43-37 192.73-37L192.73-37 196.13-37Q196.68-37 197.01-36.65 197.33-36.3 197.33-35.8L197.33-35.8 197.33-32.95Q197.33-32.4 197.01-32.05 196.68-31.7 196.13-31.7L196.13-31.7 192.93-31.7Q190.93-31.7 190.18-30.7 189.43-29.7 189.43-27.8L189.43-27.8 189.43-26 195.63-26Q196.18-26 196.51-25.65 196.83-25.3 196.83-24.8L196.83-24.8 196.83-21.95Q196.83-21.4 196.51-21.05 196.18-20.7 195.63-20.7L195.63-20.7 189.43-20.7 189.43-1.2Q189.43-0.7 189.08-0.35 188.73 0 188.23 0L188.23 0ZM208.38 0.5L208.38 0.5Q205.78 0.5 203.68-0.53 201.58-1.55 200.36-3.28 199.13-5 199.13-7.15L199.13-7.15Q199.13-10.65 201.98-12.73 204.83-14.8 209.43-15.5L209.43-15.5 216.28-16.5 216.28-17.55Q216.28-19.65 215.23-20.8 214.18-21.95 211.63-21.95L211.63-21.95Q209.83-21.95 208.71-21.23 207.58-20.5 207.03-19.3L207.03-19.3Q206.63-18.65 205.88-18.65L205.88-18.65 201.93-18.65Q201.38-18.65 201.11-18.95 200.83-19.25 200.83-19.75L200.83-19.75Q200.88-20.55 201.51-21.7 202.13-22.85 203.41-23.93 204.68-25 206.73-25.75 208.78-26.5 211.68-26.5L211.68-26.5Q214.83-26.5 217.01-25.73 219.18-24.95 220.48-23.65 221.78-22.35 222.38-20.6 222.98-18.85 222.98-16.9L222.98-16.9 222.98-1.2Q222.98-0.7 222.63-0.35 222.28 0 221.78 0L221.78 0 217.73 0Q217.18 0 216.86-0.35 216.53-0.7 216.53-1.2L216.53-1.2 216.53-3.15Q215.88-2.25 214.78-1.4 213.68-0.55 212.11-0.03 210.53 0.5 208.38 0.5ZM210.08-4.25L210.08-4.25Q211.83-4.25 213.26-5 214.68-5.75 215.51-7.33 216.33-8.9 216.33-11.3L216.33-11.3 216.33-12.35 211.33-11.55Q208.38-11.1 206.93-10.1 205.48-9.1 205.48-7.65L205.48-7.65Q205.48-6.55 206.16-5.78 206.83-5 207.88-4.63 208.93-4.25 210.08-4.25ZM234.93 0L230.58 0Q230.08 0 229.73-0.35 229.38-0.7 229.38-1.2L229.38-1.2 229.38-24.75Q229.38-25.3 229.73-25.65 230.08-26 230.58-26L230.58-26 234.63-26Q235.13-26 235.5-25.65 235.88-25.3 235.88-24.75L235.88-24.75 235.88-22.7Q237.03-24.3 238.85-25.15 240.68-26 243.08-26L243.08-26 245.13-26Q245.68-26 246-25.65 246.33-25.3 246.33-24.8L246.33-24.8 246.33-21.2Q246.33-20.7 246-20.35 245.68-20 245.13-20L245.13-20 241.23-20Q238.83-20 237.5-18.68 236.18-17.35 236.18-14.95L236.18-14.95 236.18-1.2Q236.18-0.7 235.83-0.35 235.48 0 234.93 0L234.93 0ZM255.58 0L251.43 0Q250.93 0 250.58-0.35 250.23-0.7 250.23-1.2L250.23-1.2 250.23-24.8Q250.23-25.3 250.58-25.65 250.93-26 251.43-26L251.43-26 255.58-26Q256.13-26 256.45-25.65 256.78-25.3 256.78-24.8L256.78-24.8 256.78-1.2Q256.78-0.7 256.45-0.35 256.13 0 255.58 0L255.58 0ZM255.78-30.3L251.23-30.3Q250.73-30.3 250.38-30.65 250.03-31 250.03-31.5L250.03-31.5 250.03-35.1Q250.03-35.6 250.38-35.95 250.73-36.3 251.23-36.3L251.23-36.3 255.78-36.3Q256.33-36.3 256.68-35.95 257.03-35.6 257.03-35.1L257.03-35.1 257.03-31.5Q257.03-31 256.68-30.65 256.33-30.3 255.78-30.3L255.78-30.3Z" opacity="1" transform="matrix(1,0,0,1,0,0)" fill="#000000" class="undefined-text-1" data-fill-palette-color="secondary" id="text-1"></path></svg></g></svg></g></svg></g></svg></g><g transform="matrix(1,0,0,1,425.6547586770797,0)"><svg viewBox="0 0 244.43135999999998 108.32802386444278" height="108.32802386444278" width="244.43135999999998"><g><svg xmlns="http://www.w3.org/2000/svg" xmlns:xlink="http://www.w3.org/1999/xlink" version="1.1" x="0" y="0" viewBox="0 27.842002868652344 99.9991226196289 44.3179931640625" enable-background="new 0 0 100 100" xml:space="preserve" height="108.32802386444278" width="244.43135999999998" class="icon-icon-0" data-fill-palette-color="accent" id="icon-0"><g fill="#222831" data-fill-palette-color="accent"><path d="M10.808 57.449c-0.041 0.146-0.081 0.29-0.119 0.433 1.696 0.182 4.154 0.439 6.667 0.694-0.043-0.152-0.084-0.306-0.124-0.458C14.821 57.873 12.474 57.627 10.808 57.449z" fill="#000000" data-fill-palette-color="accent"></path><path d="M10.479 58.776c1.754 0.188 4.438 0.471 7.16 0.746-0.049-0.15-0.093-0.303-0.139-0.453-2.613-0.266-5.185-0.535-6.927-0.722C10.541 58.491 10.509 58.635 10.479 58.776z" fill="#000000" data-fill-palette-color="accent"></path><path d="M17.11 57.628c-0.109-0.457-0.208-0.916-0.288-1.379L16.18 44.681l-4.809-1.285v12.371c-0.159 0.413-0.299 0.818-0.425 1.219C12.566 57.159 14.804 57.394 17.11 57.628z" fill="#000000" data-fill-palette-color="accent"></path><path d="M25.163 59.346l-0.165-0.46c-1.774-0.146-4.409-0.402-7.072-0.67 0.051 0.154 0.104 0.309 0.157 0.461C20.775 58.948 23.423 59.203 25.163 59.346z" fill="#000000" data-fill-palette-color="accent"></path><path d="M25.504 60.292l-0.163-0.455c-1.69-0.135-4.351-0.391-7.081-0.664 0.056 0.152 0.112 0.305 0.17 0.457C21.177 59.905 23.843 60.16 25.504 60.292z" fill="#000000" data-fill-palette-color="accent"></path><path d="M17.365 56.249c0.119 0.493 0.256 0.984 0.405 1.474 2.623 0.265 5.238 0.519 7.051 0.672l-0.438-1.214L17.365 56.249z" fill="#000000" data-fill-palette-color="accent"></path><path d="M25.681 60.782c-1.598-0.123-4.271-0.377-7.056-0.656 0.183 0.453 0.373 0.9 0.572 1.342 8.191 1.82 20.119 3.965 29.976 3.723 11.051 0.092 22.773-1.223 35.733-4.86 6.843-1.921 11.555-6.176 12.203-11.48 0.591-4.828-1.76-9.512-7.186-14.32l-0.229-0.203 2.727-5.497c-0.378-0.579-0.685-0.989-0.685-0.989l-3.455 6.894c6.427 5.332 8.187 9.808 7.829 13.44-0.559 5.678-7.187 9.674-12.58 11.042-12.128 3.077-21.157 4.065-30.844 4.325-16.144 0.435-26.857-2.345-26.857-2.345L25.681 60.782z" fill="#000000" data-fill-palette-color="accent"></path><path d="M21.423 53.677c0.863-0.215 1.711-0.394 2.553-0.475 0.842-0.079 1.684-0.055 2.508 0.1 0.81 0.15 1.635 0.422 2.422 0.791 0.396 0.185 0.783 0.392 1.165 0.616 0.384 0.221 0.762 0.458 1.132 0.711 1.471 1.021 2.857 2.229 4.113 3.562l0.222-0.163c-0.491-0.802-1.052-1.548-1.659-2.266-0.604-0.72-1.263-1.397-1.975-2.028-0.355-0.315-0.725-0.62-1.108-0.909-0.388-0.284-0.789-0.554-1.208-0.802-0.84-0.495-1.738-0.921-2.727-1.185-0.975-0.257-1.989-0.36-2.987-0.337-1 0.018-1.975 0.161-2.909 0.352-0.936 0.184-1.836 0.41-2.718 0.611-0.419 0.094-0.833 0.183-1.245 0.262l0.125 2.274C18.628 54.476 20.051 54.027 21.423 53.677z" fill="#000000" data-fill-palette-color="accent"></path><path d="M10.986 55.021v-2.375c-0.118-0.024-0.239-0.053-0.356-0.085-1.454-0.415-2.836-1.457-4.054-2.682-1.226-1.233-2.325-2.656-3.362-4.138-1.04-1.484-2.011-3.041-2.957-4.631L0 41.211c0.438 1.827 1.116 3.579 1.931 5.281 0.829 1.695 1.824 3.333 3.095 4.818 0.636 0.74 1.347 1.44 2.163 2.053 0.815 0.609 1.745 1.137 2.797 1.44 0.266 0.077 0.523 0.139 0.811 0.188L10.986 55.021z" fill="#000000" data-fill-palette-color="accent"></path><path d="M10.212 60.556c2.805 0.303 6.589 0.645 8.084 0.777-0.172-0.432-0.336-0.871-0.488-1.316-2.817-0.284-5.618-0.578-7.418-0.771C10.31 59.692 10.254 60.128 10.212 60.556z" fill="#000000" data-fill-palette-color="accent"></path><path d="M10.153 61.369c-0.238 5.159 2.13 8.759 3.44 10.341 0.934-0.482 1.523-1.18 3.228-1.18 2.601 0 2.601 1.629 5.201 1.629 1.1 0 1.734-0.293 2.297-0.629-1.497-1.901-3.924-5.305-5.67-9.348C17.632 62.093 13.294 61.707 10.153 61.369z" fill="#000000" data-fill-palette-color="accent"></path><path d="M92.86 29.544l-2.168 4.579c5.403 4.865 7.834 9.852 7.227 14.825-0.691 5.648-5.635 10.132-12.805 12.169-12.896 3.665-24.821 4.978-35.935 4.888-0.517 0.013-1.04 0.019-1.565 0.019-9.376 0-20.218-1.921-27.982-3.623 1.76 3.638 3.955 6.774 5.418 8.687 0.533-0.305 1.152-0.557 2.174-0.557 2.6 0 2.6 1.629 5.201 1.629 2.6 0 2.6-1.629 5.199-1.629 2.602 0 2.602 1.629 5.201 1.629 2.602 0 2.602-1.629 5.201-1.629 2.601 0 2.601 1.629 5.201 1.629s2.601-1.629 5.201-1.629 2.601 1.629 5.201 1.629c2.602 0 2.602-1.629 5.202-1.629s2.601 1.629 5.202 1.629c2.601 0 2.601-1.629 5.201-1.629 2.602 0 2.602 1.629 5.203 1.629s2.602-1.629 5.203-1.629c1.159 0 1.781 0.098 2.324 0.299C107.354 55.957 96.569 35.518 92.86 29.544z" fill="#000000" data-fill-palette-color="accent"></path></g></svg></g></svg></g></svg></g><defs></defs></svg><rect width="395.52" height="63.940885812487956" fill="none" stroke="none" visibility="hidden"></rect></g></svg></g></svg>