<?xml version="1.0" standalone="no"?><svg xmlns:xlink="http://www.w3.org/1999/xlink" xmlns="http://www.w3.org/2000/svg" viewBox="0 0 1920 1200.010729709672" preserveAspectRatio="xMaxYMax slice"><g transform="scale(1.7167535475102602)"><rect x="0" y="0" width="1118.4" height="699" fill="#121212"/><rect x="0" y="0" width="69.9" height="69.9" fill="#121212"/><polygon points="0,0 69.9,0 0,69.9" fill="#131313"/><rect x="69.9" y="0" width="69.9" height="69.9" fill="#121212"/><rect x="69.9" y="0" width="34.95" height="34.95" fill="#171717"/><polygon points="104.85000000000001,0 104.85000000000001,34.95 69.9,34.95" fill="#121212"/><rect x="104.85" y="0" width="34.95" height="34.95" fill="#141414"/><polygon points="104.85,0 139.8,34.95 104.85,34.95" fill="#121212"/><rect x="69.9" y="34.95" width="34.95" height="34.95" fill="#131313"/><polygon points="69.9,34.95 104.85000000000001,34.95 69.9,69.9" fill="#151515"/><rect x="104.85" y="34.95" width="34.95" height="34.95" fill="#121212"/><polygon points="104.85,34.95 139.8,34.95 139.8,69.9" fill="#121212"/><rect x="139.8" y="0" width="69.9" height="69.9" fill="#121212"/><rect x="139.8" y="0" width="69.9" height="69.9" fill="#121212"/><rect x="209.70000000000002" y="0" width="69.9" height="69.9" fill="#121212"/><rect x="209.7" y="0" width="34.95" height="34.95" fill="#161616"/><path d="M 209.7 0 A 34.95 34.95 0 0 0 244.64999999999998 34.95 L 244.64999999999998 0" fill="#161616"/><rect x="244.65" y="0" width="34.95" height="34.95" fill="#131313"/><path d="M 244.65 34.95 A 34.95 34.95 0 0 0 279.6 0 L 244.65 0" fill="#151515"/><rect x="209.7" y="34.95" width="34.95" height="34.95" fill="#121212"/><path d="M 209.7 69.9 A 34.95 34.95 0 0 1  244.64999999999998 34.95 L 244.64999999999998 69.9" fill="#151515"/><rect x="244.65" y="34.95" width="34.95" height="34.95" fill="#161616"/><path d="M 244.65 34.95 A 34.95 34.95 0 0 1 279.6 69.9 L 244.65 69.9" fill="#121212"/><rect x="279.6" y="0" width="69.9" height="69.9" fill="#121212"/><rect x="279.6" y="0" width="34.95" height="34.95" fill="#131313"/><path d="M 279.6 34.95 A 34.95 34.95 0 0 0 314.55 0 L 279.6 0" fill="#161616"/><rect x="314.55" y="0" width="34.95" height="34.95" fill="#121212"/><path d="M 314.55 0 A 34.95 34.95 0 0 0 349.5 34.95 L 349.5 0" fill="#121212"/><rect x="279.6" y="34.95" width="34.95" height="34.95" fill="#121212"/><path d="M 279.6 34.95 A 34.95 34.95 0 0 1 314.55 69.9 L 279.6 69.9" fill="#141414"/><rect x="314.55" y="34.95" width="34.95" height="34.95" fill="#121212"/><path d="M 314.55 69.9 A 34.95 34.95 0 0 1  349.5 34.95 L 349.5 69.9" fill="#121212"/><rect x="349.5" y="0" width="69.9" height="69.9" fill="#121212"/><rect x="349.5" y="0" width="69.9" height="69.9" fill="#121212"/><rect x="419.40000000000003" y="0" width="69.9" height="69.9" fill="#121212"/><rect x="419.4" y="0" width="34.95" height="34.95" fill="#121212"/><path d="M 419.4 34.95 A 34.95 34.95 0 0 1 454.34999999999997 0 L 454.34999999999997 8.7375 A 26.212500000000002 26.212500000000002 0 0 0 428.1375 34.95" fill="#181818"/><rect x="454.35" y="0" width="34.95" height="34.95" fill="#121212"/><path d="M 454.35 0 A 34.95 34.95 0 0 1 489.3 34.95 L 480.5625 34.95 A 26.212500000000002 26.212500000000002 0 0 0 454.35 8.7375" fill="#121212"/><rect x="419.4" y="34.95" width="34.95" height="34.95" fill="#121212"/><path d="M 419.4 34.95 A 34.95 34.95 0 0 0 454.34999999999997 69.9 L 454.34999999999997 61.16250000000001 A 26.212500000000002 26.212500000000002 0 0 1 428.1375 34.95" fill="#121212"/><rect x="454.35" y="34.95" width="34.95" height="34.95" fill="#121212"/><path d="M 454.35 69.9 A 34.95 34.95 0 0 0 489.3 34.95 L 480.5625 34.95 A 26.212500000000002 26.212500000000002 0 0 1 454.35 61.16250000000001" fill="#121212"/><rect x="489.3" y="0" width="69.9" height="69.9" fill="#151515"/><path d="M 489.3 0 A 69.9 69.9 0 0 0 559.2 69.9 L 559.2 0" fill="#121212"/><rect x="559.2" y="0" width="69.9" height="69.9" fill="#161616"/><path d="M 559.2 0 A 69.9 69.9 0 0 0 629.1 69.9 L 629.1 0" fill="#121212"/><rect x="629.1" y="0" width="69.9" height="69.9" fill="#121212"/><rect x="629.1" y="0" width="34.95" height="34.95" fill="#181818"/><polygon points="664.0500000000001,0 664.0500000000001,34.95 629.1,34.95" fill="#131313"/><rect x="664.05" y="0" width="34.95" height="34.95" fill="#141414"/><polygon points="664.05,0 699,34.95 664.05,34.95" fill="#171717"/><rect x="629.1" y="34.95" width="34.95" height="34.95" fill="#121212"/><polygon points="629.1,34.95 664.0500000000001,34.95 629.1,69.9" fill="#131313"/><rect x="664.05" y="34.95" width="34.95" height="34.95" fill="#171717"/><polygon points="664.05,34.95 699,34.95 699,69.9" fill="#121212"/><rect x="699" y="0" width="69.9" height="69.9" fill="#121212"/><polygon points="699,0 768.9,0 699,69.9" fill="#171717"/><rect x="768.9" y="0" width="69.9" height="69.9" fill="#121212"/><polygon points="768.9,0 838.8,0 768.9,69.9" fill="#141414"/><rect x="838.8" y="0" width="69.9" height="69.9" fill="#121212"/><rect x="838.8" y="0" width="69.9" height="69.9" fill="#151515"/><rect x="908.7" y="0" width="69.9" height="69.9" fill="#161616"/><path d="M 908.7 69.9 A 69.9 69.9 0 0 0 978.6 0 L 908.7 0" fill="#121212"/><rect x="978.6" y="0" width="69.9" height="69.9" fill="#131313"/><rect x="978.6" y="0" width="69.9" height="69.9" fill="#121212"/><rect x="1048.5" y="0" width="69.9" height="69.9" fill="#121212"/><rect x="1048.5" y="0" width="34.95" height="34.95" fill="#121212"/><polygon points="1083.45,0 1083.45,34.95 1048.5,34.95" fill="#121212"/><rect x="1083.45" y="0" width="34.95" height="34.95" fill="#131313"/><polygon points="1083.45,0 1118.4,0 1083.45,34.95" fill="#131313"/><rect x="1048.5" y="34.95" width="34.95" height="34.95" fill="#121212"/><polygon points="1048.5,34.95 1083.45,34.95 1083.45,69.9" fill="#121212"/><rect x="1083.45" y="34.95" width="34.95" height="34.95" fill="#131313"/><polygon points="1083.45,34.95 1118.4,69.9 1083.45,69.9" fill="#171717"/><rect x="0" y="69.9" width="69.9" height="69.9" fill="#121212"/><rect x="0" y="69.9" width="34.95" height="34.95" fill="#121212"/><polygon points="34.95,69.9 34.95,104.85000000000001 0,104.85000000000001" fill="#121212"/><rect x="34.95" y="69.9" width="34.95" height="34.95" fill="#121212"/><polygon points="34.95,69.9 69.9,69.9 34.95,104.85000000000001" fill="#121212"/><rect x="0" y="104.85" width="34.95" height="34.95" fill="#121212"/><polygon points="0,104.85 34.95,104.85 34.95,139.8" fill="#161616"/><rect x="34.95" y="104.85" width="34.95" height="34.95" fill="#171717"/><polygon points="34.95,104.85 69.9,139.8 34.95,139.8" fill="#141414"/><rect x="69.9" y="69.9" width="69.9" height="69.9" fill="#121212"/><rect x="69.9" y="69.9" width="69.9" height="69.9" fill="#161616"/><rect x="139.8" y="69.9" width="69.9" height="69.9" fill="#121212"/><rect x="139.8" y="69.9" width="34.95" height="34.95" fill="#131313"/><path d="M 139.8 69.9 A 34.95 34.95 0 0 0 174.75 104.85000000000001 L 174.75 69.9" fill="#121212"/><rect x="174.75" y="69.9" width="34.95" height="34.95" fill="#121212"/><path d="M 174.75 104.85000000000001 A 34.95 34.95 0 0 0 209.7 69.9 L 174.75 69.9" fill="#171717"/><rect x="139.8" y="104.85" width="34.95" height="34.95" fill="#131313"/><path d="M 139.8 139.8 A 34.95 34.95 0 0 1  174.75 104.85 L 174.75 139.8" fill="#151515"/><rect x="174.75" y="104.85" width="34.95" height="34.95" fill="#131313"/><path d="M 174.75 104.85 A 34.95 34.95 0 0 1 209.7 139.8 L 174.75 139.8" fill="#151515"/><rect x="209.7" y="69.9" width="69.9" height="69.9" fill="#131313"/><rect x="209.7" y="69.9" width="69.9" height="69.9" fill="#121212"/><rect x="279.6" y="69.9" width="69.9" height="69.9" fill="#141414"/><polygon points="349.5,69.9 349.5,139.8 279.6,139.8" fill="#121212"/><rect x="349.5" y="69.9" width="69.9" height="69.9" fill="#171717"/><polygon points="349.5,69.9 419.4,69.9 349.5,139.8" fill="#131313"/><rect x="419.40000000000003" y="69.9" width="69.9" height="69.9" fill="#121212"/><rect x="419.4" y="69.9" width="34.95" height="34.95" fill="#171717"/><path d="M 419.4 69.9 A 34.95 34.95 0 0 1 454.34999999999997 104.85000000000001 L 419.4 104.85000000000001" fill="#121212"/><rect x="454.35" y="69.9" width="34.95" height="34.95" fill="#121212"/><path d="M 454.35 104.85000000000001 A 34.95 34.95 0 0 1  489.3 69.9 L 489.3 104.85000000000001" fill="#171717"/><rect x="419.4" y="104.85" width="34.95" height="34.95" fill="#171717"/><path d="M 419.4 139.8 A 34.95 34.95 0 0 0 454.34999999999997 104.85 L 419.4 104.85" fill="#121212"/><rect x="454.35" y="104.85" width="34.95" height="34.95" fill="#121212"/><path d="M 454.35 104.85 A 34.95 34.95 0 0 0 489.3 139.8 L 489.3 104.85" fill="#121212"/><rect x="489.3" y="69.9" width="69.9" height="69.9" fill="#131313"/><polygon points="489.3,69.9 559.2,139.8 489.3,139.8" fill="#121212"/><rect x="559.2" y="69.9" width="69.9" height="69.9" fill="#171717"/><polygon points="559.2,69.9 629.1,139.8 559.2,139.8" fill="#131313"/><rect x="629.1" y="69.9" width="69.9" height="69.9" fill="#121212"/><rect x="629.1" y="69.9" width="34.95" height="34.95" fill="#121212"/><path d="M 629.1 104.85000000000001 A 34.95 34.95 0 0 1 664.0500000000001 69.9 L 664.0500000000001 78.6375 A 26.212500000000002 26.212500000000002 0 0 0 637.8375 104.85000000000001" fill="#121212"/><rect x="664.05" y="69.9" width="34.95" height="34.95" fill="#181818"/><path d="M 664.05 69.9 A 34.95 34.95 0 0 1 699 104.85000000000001 L 690.2624999999999 104.85000000000001 A 26.212500000000002 26.212500000000002 0 0 0 664.05 78.6375" fill="#121212"/><rect x="629.1" y="104.85" width="34.95" height="34.95" fill="#131313"/><path d="M 629.1 104.85 A 34.95 34.95 0 0 0 664.0500000000001 139.8 L 664.0500000000001 131.0625 A 26.212500000000002 26.212500000000002 0 0 1 637.8375 104.85" fill="#121212"/><rect x="664.05" y="104.85" width="34.95" height="34.95" fill="#151515"/><path d="M 664.05 139.8 A 34.95 34.95 0 0 0 699 104.85 L 690.2624999999999 104.85 A 26.212500000000002 26.212500000000002 0 0 1 664.05 131.0625" fill="#121212"/><rect x="699" y="69.9" width="69.9" height="69.9" fill="#131313"/><polygon points="699,69.9 768.9,69.9 699,139.8" fill="#171717"/><rect x="768.9" y="69.9" width="69.9" height="69.9" fill="#131313"/><rect x="768.9" y="69.9" width="69.9" height="69.9" fill="#121212"/><rect x="838.8" y="69.9" width="69.9" height="69.9" fill="#121212"/><rect x="838.8" y="69.9" width="69.9" height="69.9" fill="#131313"/><rect x="908.7" y="69.9" width="69.9" height="69.9" fill="#121212"/><rect x="908.7" y="69.9" width="34.95" height="34.95" fill="#161616"/><polygon points="943.6500000000001,69.9 943.6500000000001,104.85000000000001 908.7,104.85000000000001" fill="#171717"/><rect x="943.65" y="69.9" width="34.95" height="34.95" fill="#121212"/><polygon points="943.65,69.9 978.6,104.85000000000001 943.65,104.85000000000001" fill="#181818"/><rect x="908.7" y="104.85" width="34.95" height="34.95" fill="#121212"/><polygon points="908.7,104.85 943.6500000000001,104.85 943.6500000000001,139.8" fill="#121212"/><rect x="943.65" y="104.85" width="34.95" height="34.95" fill="#121212"/><polygon points="943.65,104.85 978.6,104.85 943.65,139.8" fill="#131313"/><rect x="978.6" y="69.9" width="69.9" height="69.9" fill="#161616"/><path d="M 978.6 139.8 A 69.9 69.9 0 0 0 1048.5 69.9 L 978.6 69.9" fill="#121212"/><rect x="1048.5" y="69.9" width="69.9" height="69.9" fill="#121212"/><rect x="1048.5" y="69.9" width="34.95" height="34.95" fill="#121212"/><polygon points="1083.45,69.9 1083.45,104.85000000000001 1048.5,104.85000000000001" fill="#121212"/><rect x="1083.45" y="69.9" width="34.95" height="34.95" fill="#121212"/><polygon points="1083.45,69.9 1118.4,69.9 1083.45,104.85000000000001" fill="#121212"/><rect x="1048.5" y="104.85" width="34.95" height="34.95" fill="#121212"/><polygon points="1048.5,104.85 1083.45,104.85 1083.45,139.8" fill="#121212"/><rect x="1083.45" y="104.85" width="34.95" height="34.95" fill="#161616"/><polygon points="1083.45,104.85 1118.4,139.8 1083.45,139.8" fill="#141414"/><rect x="0" y="139.8" width="69.9" height="69.9" fill="#121212"/><rect x="0" y="139.8" width="34.95" height="34.95" fill="#141414"/><path d="M 0 174.75 A 34.95 34.95 0 0 1  34.95 139.8 L 34.95 174.75" fill="#131313"/><rect x="34.95" y="139.8" width="34.95" height="34.95" fill="#121212"/><path d="M 34.95 139.8 A 34.95 34.95 0 0 1 69.9 174.75 L 34.95 174.75" fill="#121212"/><rect x="0" y="174.75" width="34.95" height="34.95" fill="#151515"/><path d="M 0 174.75 A 34.95 34.95 0 0 0 34.95 209.7 L 34.95 174.75" fill="#131313"/><rect x="34.95" y="174.75" width="34.95" height="34.95" fill="#121212"/><path d="M 34.95 209.7 A 34.95 34.95 0 0 0 69.9 174.75 L 34.95 174.75" fill="#121212"/><rect x="69.9" y="139.8" width="69.9" height="69.9" fill="#121212"/><rect x="69.9" y="139.8" width="34.95" height="34.95" fill="#181818"/><polygon points="104.85000000000001,139.8 104.85000000000001,174.75 69.9,174.75" fill="#131313"/><rect x="104.85" y="139.8" width="34.95" height="34.95" fill="#121212"/><polygon points="104.85,139.8 139.8,174.75 104.85,174.75" fill="#121212"/><rect x="69.9" y="174.75" width="34.95" height="34.95" fill="#121212"/><polygon points="69.9,174.75 104.85000000000001,174.75 69.9,209.7" fill="#121212"/><rect x="104.85" y="174.75" width="34.95" height="34.95" fill="#171717"/><polygon points="104.85,174.75 139.8,174.75 139.8,209.7" fill="#121212"/><rect x="139.8" y="139.8" width="69.9" height="69.9" fill="#121212"/><rect x="139.8" y="139.8" width="34.95" height="34.95" fill="#121212"/><path d="M 139.8 139.8 A 34.95 34.95 0 0 0 174.75 174.75 L 174.75 139.8" fill="#161616"/><rect x="174.75" y="139.8" width="34.95" height="34.95" fill="#121212"/><path d="M 174.75 174.75 A 34.95 34.95 0 0 0 209.7 139.8 L 174.75 139.8" fill="#121212"/><rect x="139.8" y="174.75" width="34.95" height="34.95" fill="#121212"/><path d="M 139.8 209.7 A 34.95 34.95 0 0 1  174.75 174.75 L 174.75 209.7" fill="#161616"/><rect x="174.75" y="174.75" width="34.95" height="34.95" fill="#161616"/><path d="M 174.75 174.75 A 34.95 34.95 0 0 1 209.7 209.7 L 174.75 209.7" fill="#121212"/><rect x="209.7" y="139.8" width="69.9" height="69.9" fill="#171717"/><rect x="209.7" y="139.8" width="69.9" height="69.9" fill="#171717"/><rect x="279.6" y="139.8" width="69.9" height="69.9" fill="#121212"/><rect x="279.6" y="139.8" width="34.95" height="34.95" fill="#121212"/><polygon points="314.55,139.8 314.55,174.75 279.6,174.75" fill="#121212"/><rect x="314.55" y="139.8" width="34.95" height="34.95" fill="#131313"/><polygon points="314.55,139.8 349.5,174.75 314.55,174.75" fill="#171717"/><rect x="279.6" y="174.75" width="34.95" height="34.95" fill="#121212"/><polygon points="279.6,174.75 314.55,174.75 314.55,209.7" fill="#121212"/><rect x="314.55" y="174.75" width="34.95" height="34.95" fill="#121212"/><polygon points="314.55,174.75 349.5,174.75 314.55,209.7" fill="#161616"/><rect x="349.5" y="139.8" width="69.9" height="69.9" fill="#121212"/><rect x="349.5" y="139.8" width="34.95" height="34.95" fill="#121212"/><path d="M 349.5 139.8 A 34.95 34.95 0 0 0 384.45 174.75 L 384.45 139.8" fill="#121212"/><rect x="384.45" y="139.8" width="34.95" height="34.95" fill="#121212"/><path d="M 384.45 174.75 A 34.95 34.95 0 0 0 419.4 139.8 L 384.45 139.8" fill="#121212"/><rect x="349.5" y="174.75" width="34.95" height="34.95" fill="#181818"/><path d="M 349.5 209.7 A 34.95 34.95 0 0 1  384.45 174.75 L 384.45 209.7" fill="#181818"/><rect x="384.45" y="174.75" width="34.95" height="34.95" fill="#121212"/><path d="M 384.45 174.75 A 34.95 34.95 0 0 1 419.4 209.7 L 384.45 209.7" fill="#121212"/><rect x="419.4" y="139.8" width="69.9" height="69.9" fill="#121212"/><rect x="419.4" y="139.8" width="69.9" height="69.9" fill="#161616"/><rect x="489.3" y="139.8" width="69.9" height="69.9" fill="#121212"/><polygon points="559.2,139.8 559.2,209.70000000000002 489.3,209.70000000000002" fill="#121212"/><rect x="559.2" y="139.8" width="69.9" height="69.9" fill="#121212"/><rect x="559.2" y="139.8" width="34.95" height="34.95" fill="#181818"/><path d="M 559.2 139.8 A 34.95 34.95 0 0 1 594.1500000000001 174.75 L 559.2 174.75" fill="#121212"/><rect x="594.15" y="139.8" width="34.95" height="34.95" fill="#121212"/><path d="M 594.15 174.75 A 34.95 34.95 0 0 1  629.1 139.8 L 629.1 174.75" fill="#121212"/><rect x="559.2" y="174.75" width="34.95" height="34.95" fill="#121212"/><path d="M 559.2 209.7 A 34.95 34.95 0 0 0 594.1500000000001 174.75 L 559.2 174.75" fill="#121212"/><rect x="594.15" y="174.75" width="34.95" height="34.95" fill="#121212"/><path d="M 594.15 174.75 A 34.95 34.95 0 0 0 629.1 209.7 L 629.1 174.75" fill="#121212"/><rect x="629.1" y="139.8" width="69.9" height="69.9" fill="#121212"/><polygon points="629.1,139.8 699,139.8 699,209.70000000000002" fill="#181818"/><rect x="699" y="139.8" width="69.9" height="69.9" fill="#121212"/><rect x="699" y="139.8" width="34.95" height="34.95" fill="#121212"/><polygon points="733.95,139.8 733.95,174.75 699,174.75" fill="#121212"/><rect x="733.95" y="139.8" width="34.95" height="34.95" fill="#161616"/><polygon points="733.95,139.8 768.9000000000001,174.75 733.95,174.75" fill="#161616"/><rect x="699" y="174.75" width="34.95" height="34.95" fill="#121212"/><polygon points="699,174.75 733.95,174.75 699,209.7" fill="#161616"/><rect x="733.95" y="174.75" width="34.95" height="34.95" fill="#151515"/><polygon points="733.95,174.75 768.9000000000001,174.75 768.9000000000001,209.7" fill="#161616"/><rect x="768.9000000000001" y="139.8" width="69.9" height="69.9" fill="#121212"/><rect x="768.9" y="139.8" width="34.95" height="34.95" fill="#121212"/><polygon points="803.85,139.8 803.85,174.75 768.9,174.75" fill="#121212"/><rect x="803.85" y="139.8" width="34.95" height="34.95" fill="#141414"/><polygon points="803.85,139.8 838.8000000000001,174.75 803.85,174.75" fill="#121212"/><rect x="768.9" y="174.75" width="34.95" height="34.95" fill="#161616"/><polygon points="768.9,174.75 803.85,174.75 803.85,209.7" fill="#141414"/><rect x="803.85" y="174.75" width="34.95" height="34.95" fill="#131313"/><polygon points="803.85,174.75 838.8000000000001,174.75 803.85,209.7" fill="#121212"/><rect x="838.8" y="139.8" width="69.9" height="69.9" fill="#121212"/><path d="M 838.8 209.70000000000002 A 69.9 69.9 0 0 1  908.6999999999999 139.8 L 838.8 209.70000000000002 A 69.9 69.9 0 0 0 908.6999999999999 139.8" fill="#121212"/><rect x="908.7" y="139.8" width="69.9" height="69.9" fill="#121212"/><rect x="908.7" y="139.8" width="34.95" height="34.95" fill="#121212"/><circle cx="926.1750000000001" cy="157.275" r="17.475" fill="#171717"/><rect x="943.65" y="139.8" width="34.95" height="34.95" fill="#121212"/><rect x="943.65" y="139.8" width="34.95" height="34.95" fill="#171717"/><rect x="908.7" y="174.75" width="34.95" height="34.95" fill="#161616"/><circle cx="926.1750000000001" cy="192.225" r="17.475" fill="#171717"/><rect x="943.65" y="174.75" width="34.95" height="34.95" fill="#121212"/><rect x="943.65" y="174.75" width="34.95" height="34.95" fill="#131313"/><rect x="978.6000000000001" y="139.8" width="69.9" height="69.9" fill="#121212"/><rect x="978.6" y="139.8" width="34.95" height="34.95" fill="#131313"/><path d="M 978.6 139.8 A 34.95 34.95 0 0 1 1013.5500000000001 174.75 L 978.6 174.75" fill="#121212"/><rect x="1013.55" y="139.8" width="34.95" height="34.95" fill="#121212"/><path d="M 1013.55 174.75 A 34.95 34.95 0 0 1  1048.5 139.8 L 1048.5 174.75" fill="#181818"/><rect x="978.6" y="174.75" width="34.95" height="34.95" fill="#121212"/><path d="M 978.6 209.7 A 34.95 34.95 0 0 0 1013.5500000000001 174.75 L 978.6 174.75" fill="#151515"/><rect x="1013.55" y="174.75" width="34.95" height="34.95" fill="#121212"/><path d="M 1013.55 174.75 A 34.95 34.95 0 0 0 1048.5 209.7 L 1048.5 174.75" fill="#141414"/><rect x="1048.5" y="139.8" width="69.9" height="69.9" fill="#121212"/><rect x="1048.5" y="139.8" width="34.95" height="34.95" fill="#161616"/><path d="M 1048.5 139.8 A 34.95 34.95 0 0 1 1083.45 174.75 L 1048.5 174.75" fill="#131313"/><rect x="1083.45" y="139.8" width="34.95" height="34.95" fill="#121212"/><path d="M 1083.45 174.75 A 34.95 34.95 0 0 1  1118.4 139.8 L 1118.4 174.75" fill="#121212"/><rect x="1048.5" y="174.75" width="34.95" height="34.95" fill="#121212"/><path d="M 1048.5 209.7 A 34.95 34.95 0 0 0 1083.45 174.75 L 1048.5 174.75" fill="#121212"/><rect x="1083.45" y="174.75" width="34.95" height="34.95" fill="#121212"/><path d="M 1083.45 174.75 A 34.95 34.95 0 0 0 1118.4 209.7 L 1118.4 174.75" fill="#151515"/><rect x="0" y="209.7" width="69.9" height="69.9" fill="#121212"/><path d="M 0 209.7 A 69.9 69.9 0 0 0 69.9 279.6 L 69.9 209.7" fill="#151515"/><rect x="69.9" y="209.7" width="69.9" height="69.9" fill="#181818"/><path d="M 69.9 279.6 A 69.9 69.9 0 0 0 139.8 209.7 L 69.9 209.7" fill="#121212"/><rect x="139.8" y="209.70000000000002" width="69.9" height="69.9" fill="#121212"/><rect x="139.8" y="209.7" width="34.95" height="34.95" fill="#121212"/><path d="M 139.8 244.64999999999998 A 34.95 34.95 0 0 1 174.75 209.7 L 174.75 218.4375 A 26.212500000000002 26.212500000000002 0 0 0 148.53750000000002 244.64999999999998" fill="#121212"/><rect x="174.75" y="209.7" width="34.95" height="34.95" fill="#121212"/><path d="M 174.75 209.7 A 34.95 34.95 0 0 1 209.7 244.64999999999998 L 200.9625 244.64999999999998 A 26.212500000000002 26.212500000000002 0 0 0 174.75 218.4375" fill="#141414"/><rect x="139.8" y="244.65" width="34.95" height="34.95" fill="#171717"/><path d="M 139.8 244.65 A 34.95 34.95 0 0 0 174.75 279.6 L 174.75 270.8625 A 26.212500000000002 26.212500000000002 0 0 1 148.53750000000002 244.65" fill="#121212"/><rect x="174.75" y="244.65" width="34.95" height="34.95" fill="#121212"/><path d="M 174.75 279.6 A 34.95 34.95 0 0 0 209.7 244.65 L 200.9625 244.65 A 26.212500000000002 26.212500000000002 0 0 1 174.75 270.8625" fill="#121212"/><rect x="209.70000000000002" y="209.70000000000002" width="69.9" height="69.9" fill="#121212"/><rect x="209.7" y="209.7" width="34.95" height="34.95" fill="#151515"/><polygon points="244.64999999999998,209.7 244.64999999999998,244.64999999999998 209.7,244.64999999999998" fill="#131313"/><rect x="244.65" y="209.7" width="34.95" height="34.95" fill="#121212"/><polygon points="244.65,209.7 279.6,244.64999999999998 244.65,244.64999999999998" fill="#121212"/><rect x="209.7" y="244.65" width="34.95" height="34.95" fill="#171717"/><polygon points="209.7,244.65 244.64999999999998,244.65 209.7,279.6" fill="#121212"/><rect x="244.65" y="244.65" width="34.95" height="34.95" fill="#121212"/><polygon points="244.65,244.65 279.6,244.65 279.6,279.6" fill="#121212"/><rect x="279.6" y="209.7" width="69.9" height="69.9" fill="#121212"/><polygon points="279.6,209.7 349.5,209.7 279.6,279.6" fill="#121212"/><rect x="349.5" y="209.7" width="69.9" height="69.9" fill="#121212"/><polygon points="349.5,209.7 419.4,279.6 349.5,279.6" fill="#121212"/><rect x="419.40000000000003" y="209.70000000000002" width="69.9" height="69.9" fill="#121212"/><rect x="419.4" y="209.7" width="34.95" height="34.95" fill="#141414"/><path d="M 419.4 244.64999999999998 A 34.95 34.95 0 0 1 454.34999999999997 209.7 L 454.34999999999997 218.4375 A 26.212500000000002 26.212500000000002 0 0 0 428.1375 244.64999999999998" fill="#131313"/><rect x="454.35" y="209.7" width="34.95" height="34.95" fill="#121212"/><path d="M 454.35 209.7 A 34.95 34.95 0 0 1 489.3 244.64999999999998 L 480.5625 244.64999999999998 A 26.212500000000002 26.212500000000002 0 0 0 454.35 218.4375" fill="#121212"/><rect x="419.4" y="244.65" width="34.95" height="34.95" fill="#151515"/><path d="M 419.4 244.65 A 34.95 34.95 0 0 0 454.34999999999997 279.6 L 454.34999999999997 270.8625 A 26.212500000000002 26.212500000000002 0 0 1 428.1375 244.65" fill="#161616"/><rect x="454.35" y="244.65" width="34.95" height="34.95" fill="#121212"/><path d="M 454.35 279.6 A 34.95 34.95 0 0 0 489.3 244.65 L 480.5625 244.65 A 26.212500000000002 26.212500000000002 0 0 1 454.35 270.8625" fill="#121212"/><rect x="489.30000000000007" y="209.70000000000002" width="69.9" height="69.9" fill="#121212"/><rect x="489.3" y="209.7" width="34.95" height="34.95" fill="#141414"/><polygon points="524.25,209.7 524.25,244.64999999999998 489.3,244.64999999999998" fill="#151515"/><rect x="524.25" y="209.7" width="34.95" height="34.95" fill="#171717"/><polygon points="524.25,209.7 559.2,209.7 524.25,244.64999999999998" fill="#121212"/><rect x="489.3" y="244.65" width="34.95" height="34.95" fill="#121212"/><polygon points="489.3,244.65 524.25,244.65 524.25,279.6" fill="#121212"/><rect x="524.25" y="244.65" width="34.95" height="34.95" fill="#121212"/><polygon points="524.25,244.65 559.2,279.6 524.25,279.6" fill="#121212"/><rect x="559.2" y="209.70000000000002" width="69.9" height="69.9" fill="#121212"/><rect x="559.2" y="209.7" width="34.95" height="34.95" fill="#121212"/><polygon points="594.1500000000001,209.7 594.1500000000001,244.64999999999998 559.2,244.64999999999998" fill="#121212"/><rect x="594.15" y="209.7" width="34.95" height="34.95" fill="#141414"/><polygon points="594.15,209.7 629.1,209.7 594.15,244.64999999999998" fill="#121212"/><rect x="559.2" y="244.65" width="34.95" height="34.95" fill="#121212"/><polygon points="559.2,244.65 594.1500000000001,244.65 594.1500000000001,279.6" fill="#131313"/><rect x="594.15" y="244.65" width="34.95" height="34.95" fill="#121212"/><polygon points="594.15,244.65 629.1,279.6 594.15,279.6" fill="#121212"/><rect x="629.1" y="209.70000000000002" width="69.9" height="69.9" fill="#121212"/><rect x="629.1" y="209.7" width="34.95" height="34.95" fill="#131313"/><path d="M 629.1 209.7 A 34.95 34.95 0 0 0 664.0500000000001 244.64999999999998 L 664.0500000000001 209.7" fill="#121212"/><rect x="664.05" y="209.7" width="34.95" height="34.95" fill="#121212"/><path d="M 664.05 244.64999999999998 A 34.95 34.95 0 0 0 699 209.7 L 664.05 209.7" fill="#131313"/><rect x="629.1" y="244.65" width="34.95" height="34.95" fill="#161616"/><path d="M 629.1 279.6 A 34.95 34.95 0 0 1  664.0500000000001 244.65 L 664.0500000000001 279.6" fill="#141414"/><rect x="664.05" y="244.65" width="34.95" height="34.95" fill="#121212"/><path d="M 664.05 244.65 A 34.95 34.95 0 0 1 699 279.6 L 664.05 279.6" fill="#121212"/><rect x="699" y="209.7" width="69.9" height="69.9" fill="#121212"/><polygon points="699,209.7 768.9,279.6 699,279.6" fill="#131313"/><rect x="768.9" y="209.7" width="69.9" height="69.9" fill="#121212"/><path d="M 768.9 279.6 A 69.9 69.9 0 0 1  838.8 209.7 L 768.9 279.6 A 69.9 69.9 0 0 0 838.8 209.7" fill="#131313"/><rect x="838.8" y="209.7" width="69.9" height="69.9" fill="#121212"/><rect x="838.8" y="209.7" width="69.9" height="69.9" fill="#141414"/><rect x="908.7" y="209.7" width="69.9" height="69.9" fill="#121212"/><polygon points="908.7,209.7 978.6,209.7 908.7,279.6" fill="#121212"/><rect x="978.6000000000001" y="209.70000000000002" width="69.9" height="69.9" fill="#121212"/><rect x="978.6" y="209.7" width="34.95" height="34.95" fill="#161616"/><path d="M 978.6 244.64999999999998 A 34.95 34.95 0 0 1 1013.5500000000001 209.7 L 1013.5500000000001 218.4375 A 26.212500000000002 26.212500000000002 0 0 0 987.3375 244.64999999999998" fill="#121212"/><rect x="1013.55" y="209.7" width="34.95" height="34.95" fill="#121212"/><path d="M 1013.55 209.7 A 34.95 34.95 0 0 1 1048.5 244.64999999999998 L 1039.7625 244.64999999999998 A 26.212500000000002 26.212500000000002 0 0 0 1013.55 218.4375" fill="#121212"/><rect x="978.6" y="244.65" width="34.95" height="34.95" fill="#121212"/><path d="M 978.6 244.65 A 34.95 34.95 0 0 0 1013.5500000000001 279.6 L 1013.5500000000001 270.8625 A 26.212500000000002 26.212500000000002 0 0 1 987.3375 244.65" fill="#141414"/><rect x="1013.55" y="244.65" width="34.95" height="34.95" fill="#121212"/><path d="M 1013.55 279.6 A 34.95 34.95 0 0 0 1048.5 244.65 L 1039.7625 244.65 A 26.212500000000002 26.212500000000002 0 0 1 1013.55 270.8625" fill="#131313"/><rect x="1048.5" y="209.70000000000002" width="69.9" height="69.9" fill="#121212"/><rect x="1048.5" y="209.7" width="34.95" height="34.95" fill="#121212"/><polygon points="1083.45,209.7 1083.45,244.64999999999998 1048.5,244.64999999999998" fill="#121212"/><rect x="1083.45" y="209.7" width="34.95" height="34.95" fill="#121212"/><polygon points="1083.45,209.7 1118.4,244.64999999999998 1083.45,244.64999999999998" fill="#121212"/><rect x="1048.5" y="244.65" width="34.95" height="34.95" fill="#161616"/><polygon points="1048.5,244.65 1083.45,244.65 1048.5,279.6" fill="#151515"/><rect x="1083.45" y="244.65" width="34.95" height="34.95" fill="#161616"/><polygon points="1083.45,244.65 1118.4,244.65 1118.4,279.6" fill="#161616"/><rect x="0" y="279.6" width="69.9" height="69.9" fill="#121212"/><rect x="0" y="279.6" width="34.95" height="34.95" fill="#121212"/><path d="M 0 314.55 A 34.95 34.95 0 0 1 34.95 279.6 L 34.95 288.33750000000003 A 26.212500000000002 26.212500000000002 0 0 0 8.7375 314.55" fill="#121212"/><rect x="34.95" y="279.6" width="34.95" height="34.95" fill="#151515"/><path d="M 34.95 279.6 A 34.95 34.95 0 0 1 69.9 314.55 L 61.16250000000001 314.55 A 26.212500000000002 26.212500000000002 0 0 0 34.95 288.33750000000003" fill="#121212"/><rect x="0" y="314.55" width="34.95" height="34.95" fill="#131313"/><path d="M 0 314.55 A 34.95 34.95 0 0 0 34.95 349.5 L 34.95 340.7625 A 26.212500000000002 26.212500000000002 0 0 1 8.7375 314.55" fill="#121212"/><rect x="34.95" y="314.55" width="34.95" height="34.95" fill="#161616"/><path d="M 34.95 349.5 A 34.95 34.95 0 0 0 69.9 314.55 L 61.16250000000001 314.55 A 26.212500000000002 26.212500000000002 0 0 1 34.95 340.7625" fill="#121212"/><rect x="69.9" y="279.6" width="69.9" height="69.9" fill="#121212"/><rect x="69.9" y="279.6" width="34.95" height="34.95" fill="#171717"/><circle cx="87.375" cy="297.07500000000005" r="17.475" fill="#121212"/><rect x="104.85" y="279.6" width="34.95" height="34.95" fill="#121212"/><rect x="104.85" y="279.6" width="34.95" height="34.95" fill="#121212"/><rect x="69.9" y="314.55" width="34.95" height="34.95" fill="#131313"/><circle cx="87.375" cy="332.02500000000003" r="17.475" fill="#181818"/><rect x="104.85" y="314.55" width="34.95" height="34.95" fill="#181818"/><rect x="104.85" y="314.55" width="34.95" height="34.95" fill="#171717"/><rect x="139.8" y="279.6" width="69.9" height="69.9" fill="#151515"/><rect x="139.8" y="279.6" width="69.9" height="69.9" fill="#161616"/><rect x="209.70000000000002" y="279.6" width="69.9" height="69.9" fill="#121212"/><rect x="209.7" y="279.6" width="34.95" height="34.95" fill="#121212"/><circle cx="227.17499999999998" cy="297.07500000000005" r="17.475" fill="#181818"/><rect x="244.65" y="279.6" width="34.95" height="34.95" fill="#151515"/><rect x="244.65" y="279.6" width="34.95" height="34.95" fill="#141414"/><rect x="209.7" y="314.55" width="34.95" height="34.95" fill="#121212"/><circle cx="227.17499999999998" cy="332.02500000000003" r="17.475" fill="#161616"/><rect x="244.65" y="314.55" width="34.95" height="34.95" fill="#121212"/><rect x="244.65" y="314.55" width="34.95" height="34.95" fill="#141414"/><rect x="279.6" y="279.6" width="69.9" height="69.9" fill="#121212"/><polygon points="279.6,279.6 349.5,349.5 279.6,349.5" fill="#121212"/><rect x="349.5" y="279.6" width="69.9" height="69.9" fill="#121212"/><rect x="349.5" y="279.6" width="34.95" height="34.95" fill="#131313"/><circle cx="366.975" cy="297.07500000000005" r="17.475" fill="#181818"/><rect x="384.45" y="279.6" width="34.95" height="34.95" fill="#121212"/><rect x="384.45" y="279.6" width="34.95" height="34.95" fill="#121212"/><rect x="349.5" y="314.55" width="34.95" height="34.95" fill="#151515"/><circle cx="366.975" cy="332.02500000000003" r="17.475" fill="#121212"/><rect x="384.45" y="314.55" width="34.95" height="34.95" fill="#121212"/><rect x="384.45" y="314.55" width="34.95" height="34.95" fill="#131313"/><rect x="419.40000000000003" y="279.6" width="69.9" height="69.9" fill="#121212"/><rect x="419.4" y="279.6" width="34.95" height="34.95" fill="#131313"/><polygon points="454.34999999999997,279.6 454.34999999999997,314.55 419.4,314.55" fill="#121212"/><rect x="454.35" y="279.6" width="34.95" height="34.95" fill="#121212"/><polygon points="454.35,279.6 489.3,314.55 454.35,314.55" fill="#181818"/><rect x="419.4" y="314.55" width="34.95" height="34.95" fill="#131313"/><polygon points="419.4,314.55 454.34999999999997,314.55 454.34999999999997,349.5" fill="#151515"/><rect x="454.35" y="314.55" width="34.95" height="34.95" fill="#121212"/><polygon points="454.35,314.55 489.3,314.55 454.35,349.5" fill="#121212"/><rect x="489.3" y="279.6" width="69.9" height="69.9" fill="#151515"/><rect x="489.3" y="279.6" width="69.9" height="69.9" fill="#151515"/><rect x="559.2" y="279.6" width="69.9" height="69.9" fill="#121212"/><polygon points="629.1,279.6 629.1,349.5 559.2,349.5" fill="#141414"/><rect x="629.1" y="279.6" width="69.9" height="69.9" fill="#121212"/><polygon points="629.1,279.6 699,349.5 629.1,349.5" fill="#121212"/><rect x="699" y="279.6" width="69.9" height="69.9" fill="#121212"/><rect x="699" y="279.6" width="34.95" height="34.95" fill="#121212"/><path d="M 699 279.6 A 34.95 34.95 0 0 1 733.95 314.55 L 699 314.55" fill="#121212"/><rect x="733.95" y="279.6" width="34.95" height="34.95" fill="#121212"/><path d="M 733.95 314.55 A 34.95 34.95 0 0 1  768.9000000000001 279.6 L 768.9000000000001 314.55" fill="#131313"/><rect x="699" y="314.55" width="34.95" height="34.95" fill="#121212"/><path d="M 699 349.5 A 34.95 34.95 0 0 0 733.95 314.55 L 699 314.55" fill="#151515"/><rect x="733.95" y="314.55" width="34.95" height="34.95" fill="#121212"/><path d="M 733.95 314.55 A 34.95 34.95 0 0 0 768.9000000000001 349.5 L 768.9000000000001 314.55" fill="#141414"/><rect x="768.9" y="279.6" width="69.9" height="69.9" fill="#121212"/><polygon points="838.8,279.6 838.8,349.5 768.9,349.5" fill="#121212"/><rect x="838.8" y="279.6" width="69.9" height="69.9" fill="#121212"/><rect x="838.8" y="279.6" width="69.9" height="69.9" fill="#121212"/><rect x="908.7" y="279.6" width="69.9" height="69.9" fill="#121212"/><polygon points="908.7,279.6 978.6,279.6 978.6,349.5" fill="#121212"/><rect x="978.6000000000001" y="279.6" width="69.9" height="69.9" fill="#121212"/><rect x="978.6" y="279.6" width="34.95" height="34.95" fill="#121212"/><path d="M 978.6 314.55 A 34.95 34.95 0 0 1 1013.5500000000001 279.6 L 1013.5500000000001 288.33750000000003 A 26.212500000000002 26.212500000000002 0 0 0 987.3375 314.55" fill="#151515"/><rect x="1013.55" y="279.6" width="34.95" height="34.95" fill="#181818"/><path d="M 1013.55 279.6 A 34.95 34.95 0 0 1 1048.5 314.55 L 1039.7625 314.55 A 26.212500000000002 26.212500000000002 0 0 0 1013.55 288.33750000000003" fill="#121212"/><rect x="978.6" y="314.55" width="34.95" height="34.95" fill="#151515"/><path d="M 978.6 314.55 A 34.95 34.95 0 0 0 1013.5500000000001 349.5 L 1013.5500000000001 340.7625 A 26.212500000000002 26.212500000000002 0 0 1 987.3375 314.55" fill="#131313"/><rect x="1013.55" y="314.55" width="34.95" height="34.95" fill="#151515"/><path d="M 1013.55 349.5 A 34.95 34.95 0 0 0 1048.5 314.55 L 1039.7625 314.55 A 26.212500000000002 26.212500000000002 0 0 1 1013.55 340.7625" fill="#121212"/><rect x="1048.5" y="279.6" width="69.9" height="69.9" fill="#121212"/><rect x="1048.5" y="279.6" width="34.95" height="34.95" fill="#121212"/><path d="M 1048.5 279.6 A 34.95 34.95 0 0 0 1083.45 314.55 L 1083.45 279.6" fill="#161616"/><rect x="1083.45" y="279.6" width="34.95" height="34.95" fill="#131313"/><path d="M 1083.45 314.55 A 34.95 34.95 0 0 0 1118.4 279.6 L 1083.45 279.6" fill="#121212"/><rect x="1048.5" y="314.55" width="34.95" height="34.95" fill="#121212"/><path d="M 1048.5 349.5 A 34.95 34.95 0 0 1  1083.45 314.55 L 1083.45 349.5" fill="#121212"/><rect x="1083.45" y="314.55" width="34.95" height="34.95" fill="#141414"/><path d="M 1083.45 314.55 A 34.95 34.95 0 0 1 1118.4 349.5 L 1083.45 349.5" fill="#121212"/><rect x="0" y="349.5" width="69.9" height="69.9" fill="#121212"/><polygon points="0,349.5 69.9,349.5 69.9,419.4" fill="#121212"/><rect x="69.9" y="349.5" width="69.9" height="69.9" fill="#121212"/><rect x="69.9" y="349.5" width="34.95" height="34.95" fill="#121212"/><path d="M 69.9 384.45 A 34.95 34.95 0 0 1 104.85000000000001 349.5 L 104.85000000000001 358.2375 A 26.212500000000002 26.212500000000002 0 0 0 78.6375 384.45" fill="#121212"/><rect x="104.85" y="349.5" width="34.95" height="34.95" fill="#121212"/><path d="M 104.85 349.5 A 34.95 34.95 0 0 1 139.8 384.45 L 131.0625 384.45 A 26.212500000000002 26.212500000000002 0 0 0 104.85 358.2375" fill="#151515"/><rect x="69.9" y="384.45" width="34.95" height="34.95" fill="#121212"/><path d="M 69.9 384.45 A 34.95 34.95 0 0 0 104.85000000000001 419.4 L 104.85000000000001 410.66249999999997 A 26.212500000000002 26.212500000000002 0 0 1 78.6375 384.45" fill="#131313"/><rect x="104.85" y="384.45" width="34.95" height="34.95" fill="#131313"/><path d="M 104.85 419.4 A 34.95 34.95 0 0 0 139.8 384.45 L 131.0625 384.45 A 26.212500000000002 26.212500000000002 0 0 1 104.85 410.66249999999997" fill="#121212"/><rect x="139.8" y="349.5" width="69.9" height="69.9" fill="#121212"/><path d="M 139.8 419.4 A 69.9 69.9 0 0 1  209.70000000000002 349.5 L 139.8 419.4 A 69.9 69.9 0 0 0 209.70000000000002 349.5" fill="#161616"/><rect x="209.70000000000002" y="349.5" width="69.9" height="69.9" fill="#121212"/><rect x="209.7" y="349.5" width="34.95" height="34.95" fill="#121212"/><polygon points="244.64999999999998,349.5 244.64999999999998,384.45 209.7,384.45" fill="#121212"/><rect x="244.65" y="349.5" width="34.95" height="34.95" fill="#171717"/><polygon points="244.65,349.5 279.6,384.45 244.65,384.45" fill="#121212"/><rect x="209.7" y="384.45" width="34.95" height="34.95" fill="#121212"/><polygon points="209.7,384.45 244.64999999999998,384.45 244.64999999999998,419.4" fill="#121212"/><rect x="244.65" y="384.45" width="34.95" height="34.95" fill="#121212"/><polygon points="244.65,384.45 279.6,384.45 244.65,419.4" fill="#121212"/><rect x="279.6" y="349.5" width="69.9" height="69.9" fill="#121212"/><path d="M 279.6 349.5 A 69.9 69.9 0 0 1  349.5 419.4 L 279.6 349.5 A 69.9 69.9 0 0 0 349.5 419.4" fill="#121212"/><rect x="349.5" y="349.5" width="69.9" height="69.9" fill="#121212"/><rect x="349.5" y="349.5" width="34.95" height="34.95" fill="#121212"/><circle cx="366.975" cy="366.975" r="17.475" fill="#161616"/><rect x="384.45" y="349.5" width="34.95" height="34.95" fill="#171717"/><rect x="384.45" y="349.5" width="34.95" height="34.95" fill="#181818"/><rect x="349.5" y="384.45" width="34.95" height="34.95" fill="#121212"/><circle cx="366.975" cy="401.925" r="17.475" fill="#121212"/><rect x="384.45" y="384.45" width="34.95" height="34.95" fill="#121212"/><rect x="384.45" y="384.45" width="34.95" height="34.95" fill="#121212"/><rect x="419.40000000000003" y="349.5" width="69.9" height="69.9" fill="#121212"/><rect x="419.4" y="349.5" width="34.95" height="34.95" fill="#181818"/><path d="M 419.4 384.45 A 34.95 34.95 0 0 0 454.34999999999997 349.5 L 419.4 349.5" fill="#121212"/><rect x="454.35" y="349.5" width="34.95" height="34.95" fill="#121212"/><path d="M 454.35 349.5 A 34.95 34.95 0 0 0 489.3 384.45 L 489.3 349.5" fill="#121212"/><rect x="419.4" y="384.45" width="34.95" height="34.95" fill="#161616"/><path d="M 419.4 384.45 A 34.95 34.95 0 0 1 454.34999999999997 419.4 L 419.4 419.4" fill="#161616"/><rect x="454.35" y="384.45" width="34.95" height="34.95" fill="#171717"/><path d="M 454.35 419.4 A 34.95 34.95 0 0 1  489.3 384.45 L 489.3 419.4" fill="#151515"/><rect x="489.30000000000007" y="349.5" width="69.9" height="69.9" fill="#121212"/><rect x="489.3" y="349.5" width="34.95" height="34.95" fill="#121212"/><path d="M 489.3 349.5 A 34.95 34.95 0 0 1 524.25 384.45 L 489.3 384.45" fill="#121212"/><rect x="524.25" y="349.5" width="34.95" height="34.95" fill="#121212"/><path d="M 524.25 384.45 A 34.95 34.95 0 0 1  559.2 349.5 L 559.2 384.45" fill="#141414"/><rect x="489.3" y="384.45" width="34.95" height="34.95" fill="#161616"/><path d="M 489.3 419.4 A 34.95 34.95 0 0 0 524.25 384.45 L 489.3 384.45" fill="#151515"/><rect x="524.25" y="384.45" width="34.95" height="34.95" fill="#131313"/><path d="M 524.25 384.45 A 34.95 34.95 0 0 0 559.2 419.4 L 559.2 384.45" fill="#121212"/><rect x="559.2" y="349.5" width="69.9" height="69.9" fill="#181818"/><path d="M 559.2 349.5 A 69.9 69.9 0 0 1  629.1 419.4 L 559.2 349.5 A 69.9 69.9 0 0 0 629.1 419.4" fill="#141414"/><rect x="629.1" y="349.5" width="69.9" height="69.9" fill="#121212"/><path d="M 629.1 349.5 A 69.9 69.9 0 0 1 699 419.4 L 629.1 419.4" fill="#121212"/><rect x="699" y="349.5" width="69.9" height="69.9" fill="#121212"/><path d="M 699 349.5 A 69.9 69.9 0 0 1  768.9 419.4 L 699 349.5 A 69.9 69.9 0 0 0 768.9 419.4" fill="#181818"/><rect x="768.9000000000001" y="349.5" width="69.9" height="69.9" fill="#121212"/><rect x="768.9" y="349.5" width="34.95" height="34.95" fill="#131313"/><path d="M 768.9 349.5 A 34.95 34.95 0 0 1 803.85 384.45 L 768.9 384.45" fill="#121212"/><rect x="803.85" y="349.5" width="34.95" height="34.95" fill="#121212"/><path d="M 803.85 384.45 A 34.95 34.95 0 0 1  838.8000000000001 349.5 L 838.8000000000001 384.45" fill="#171717"/><rect x="768.9" y="384.45" width="34.95" height="34.95" fill="#121212"/><path d="M 768.9 419.4 A 34.95 34.95 0 0 0 803.85 384.45 L 768.9 384.45" fill="#171717"/><rect x="803.85" y="384.45" width="34.95" height="34.95" fill="#121212"/><path d="M 803.85 384.45 A 34.95 34.95 0 0 0 838.8000000000001 419.4 L 838.8000000000001 384.45" fill="#151515"/><rect x="838.8000000000001" y="349.5" width="69.9" height="69.9" fill="#121212"/><rect x="838.8" y="349.5" width="34.95" height="34.95" fill="#121212"/><path d="M 838.8 384.45 A 34.95 34.95 0 0 1 873.75 349.5 L 873.75 358.2375 A 26.212500000000002 26.212500000000002 0 0 0 847.5374999999999 384.45" fill="#181818"/><rect x="873.75" y="349.5" width="34.95" height="34.95" fill="#121212"/><path d="M 873.75 349.5 A 34.95 34.95 0 0 1 908.7 384.45 L 899.9625 384.45 A 26.212500000000002 26.212500000000002 0 0 0 873.75 358.2375" fill="#121212"/><rect x="838.8" y="384.45" width="34.95" height="34.95" fill="#121212"/><path d="M 838.8 384.45 A 34.95 34.95 0 0 0 873.75 419.4 L 873.75 410.66249999999997 A 26.212500000000002 26.212500000000002 0 0 1 847.5374999999999 384.45" fill="#121212"/><rect x="873.75" y="384.45" width="34.95" height="34.95" fill="#181818"/><path d="M 873.75 419.4 A 34.95 34.95 0 0 0 908.7 384.45 L 899.9625 384.45 A 26.212500000000002 26.212500000000002 0 0 1 873.75 410.66249999999997" fill="#141414"/><rect x="908.7" y="349.5" width="69.9" height="69.9" fill="#121212"/><rect x="908.7" y="349.5" width="34.95" height="34.95" fill="#121212"/><path d="M 908.7 384.45 A 34.95 34.95 0 0 0 943.6500000000001 349.5 L 908.7 349.5" fill="#151515"/><rect x="943.65" y="349.5" width="34.95" height="34.95" fill="#121212"/><path d="M 943.65 349.5 A 34.95 34.95 0 0 0 978.6 384.45 L 978.6 349.5" fill="#121212"/><rect x="908.7" y="384.45" width="34.95" height="34.95" fill="#121212"/><path d="M 908.7 384.45 A 34.95 34.95 0 0 1 943.6500000000001 419.4 L 908.7 419.4" fill="#131313"/><rect x="943.65" y="384.45" width="34.95" height="34.95" fill="#161616"/><path d="M 943.65 419.4 A 34.95 34.95 0 0 1  978.6 384.45 L 978.6 419.4" fill="#121212"/><rect x="978.6000000000001" y="349.5" width="69.9" height="69.9" fill="#121212"/><rect x="978.6" y="349.5" width="34.95" height="34.95" fill="#141414"/><polygon points="1013.5500000000001,349.5 1013.5500000000001,384.45 978.6,384.45" fill="#141414"/><rect x="1013.55" y="349.5" width="34.95" height="34.95" fill="#121212"/><polygon points="1013.55,349.5 1048.5,384.45 1013.55,384.45" fill="#181818"/><rect x="978.6" y="384.45" width="34.95" height="34.95" fill="#121212"/><polygon points="978.6,384.45 1013.5500000000001,384.45 1013.5500000000001,419.4" fill="#121212"/><rect x="1013.55" y="384.45" width="34.95" height="34.95" fill="#121212"/><polygon points="1013.55,384.45 1048.5,384.45 1013.55,419.4" fill="#121212"/><rect x="1048.5" y="349.5" width="69.9" height="69.9" fill="#121212"/><rect x="1048.5" y="349.5" width="69.9" height="69.9" fill="#151515"/><rect x="0" y="419.4" width="69.9" height="69.9" fill="#121212"/><rect x="0" y="419.4" width="69.9" height="69.9" fill="#121212"/><rect x="69.9" y="419.40000000000003" width="69.9" height="69.9" fill="#121212"/><rect x="69.9" y="419.4" width="34.95" height="34.95" fill="#121212"/><polygon points="104.85000000000001,419.4 104.85000000000001,454.34999999999997 69.9,454.34999999999997" fill="#121212"/><rect x="104.85" y="419.4" width="34.95" height="34.95" fill="#161616"/><polygon points="104.85,419.4 139.8,454.34999999999997 104.85,454.34999999999997" fill="#121212"/><rect x="69.9" y="454.35" width="34.95" height="34.95" fill="#181818"/><polygon points="69.9,454.35 104.85000000000001,454.35 104.85000000000001,489.3" fill="#121212"/><rect x="104.85" y="454.35" width="34.95" height="34.95" fill="#171717"/><polygon points="104.85,454.35 139.8,454.35 104.85,489.3" fill="#171717"/><rect x="139.8" y="419.4" width="69.9" height="69.9" fill="#121212"/><path d="M 139.8 489.29999999999995 A 69.9 69.9 0 0 1  209.70000000000002 419.4 L 209.70000000000002 489.29999999999995" fill="#121212"/><rect x="209.70000000000002" y="419.40000000000003" width="69.9" height="69.9" fill="#121212"/><rect x="209.7" y="419.4" width="34.95" height="34.95" fill="#151515"/><path d="M 209.7 454.34999999999997 A 34.95 34.95 0 0 0 244.64999999999998 419.4 L 209.7 419.4" fill="#131313"/><rect x="244.65" y="419.4" width="34.95" height="34.95" fill="#141414"/><path d="M 244.65 419.4 A 34.95 34.95 0 0 0 279.6 454.34999999999997 L 279.6 419.4" fill="#121212"/><rect x="209.7" y="454.35" width="34.95" height="34.95" fill="#121212"/><path d="M 209.7 454.35 A 34.95 34.95 0 0 1 244.64999999999998 489.3 L 209.7 489.3" fill="#141414"/><rect x="244.65" y="454.35" width="34.95" height="34.95" fill="#131313"/><path d="M 244.65 489.3 A 34.95 34.95 0 0 1  279.6 454.35 L 279.6 489.3" fill="#121212"/><rect x="279.6" y="419.40000000000003" width="69.9" height="69.9" fill="#121212"/><rect x="279.6" y="419.4" width="34.95" height="34.95" fill="#121212"/><polygon points="314.55,419.4 314.55,454.34999999999997 279.6,454.34999999999997" fill="#121212"/><rect x="314.55" y="419.4" width="34.95" height="34.95" fill="#121212"/><polygon points="314.55,419.4 349.5,454.34999999999997 314.55,454.34999999999997" fill="#151515"/><rect x="279.6" y="454.35" width="34.95" height="34.95" fill="#121212"/><polygon points="279.6,454.35 314.55,454.35 279.6,489.3" fill="#121212"/><rect x="314.55" y="454.35" width="34.95" height="34.95" fill="#171717"/><polygon points="314.55,454.35 349.5,454.35 349.5,489.3" fill="#171717"/><rect x="349.5" y="419.40000000000003" width="69.9" height="69.9" fill="#121212"/><rect x="349.5" y="419.4" width="34.95" height="34.95" fill="#121212"/><path d="M 349.5 454.34999999999997 A 34.95 34.95 0 0 0 384.45 419.4 L 349.5 419.4" fill="#171717"/><rect x="384.45" y="419.4" width="34.95" height="34.95" fill="#181818"/><path d="M 384.45 419.4 A 34.95 34.95 0 0 0 419.4 454.34999999999997 L 419.4 419.4" fill="#121212"/><rect x="349.5" y="454.35" width="34.95" height="34.95" fill="#121212"/><path d="M 349.5 454.35 A 34.95 34.95 0 0 1 384.45 489.3 L 349.5 489.3" fill="#171717"/><rect x="384.45" y="454.35" width="34.95" height="34.95" fill="#121212"/><path d="M 384.45 489.3 A 34.95 34.95 0 0 1  419.4 454.35 L 419.4 489.3" fill="#161616"/><rect x="419.40000000000003" y="419.40000000000003" width="69.9" height="69.9" fill="#121212"/><rect x="419.4" y="419.4" width="34.95" height="34.95" fill="#121212"/><path d="M 419.4 419.4 A 34.95 34.95 0 0 1 454.34999999999997 454.34999999999997 L 419.4 454.34999999999997" fill="#181818"/><rect x="454.35" y="419.4" width="34.95" height="34.95" fill="#121212"/><path d="M 454.35 454.34999999999997 A 34.95 34.95 0 0 1  489.3 419.4 L 489.3 454.34999999999997" fill="#121212"/><rect x="419.4" y="454.35" width="34.95" height="34.95" fill="#121212"/><path d="M 419.4 489.3 A 34.95 34.95 0 0 0 454.34999999999997 454.35 L 419.4 454.35" fill="#181818"/><rect x="454.35" y="454.35" width="34.95" height="34.95" fill="#121212"/><path d="M 454.35 454.35 A 34.95 34.95 0 0 0 489.3 489.3 L 489.3 454.35" fill="#141414"/><rect x="489.3" y="419.4" width="69.9" height="69.9" fill="#151515"/><rect x="489.3" y="419.4" width="69.9" height="69.9" fill="#151515"/><rect x="559.2" y="419.40000000000003" width="69.9" height="69.9" fill="#121212"/><rect x="559.2" y="419.4" width="34.95" height="34.95" fill="#181818"/><polygon points="594.1500000000001,419.4 594.1500000000001,454.34999999999997 559.2,454.34999999999997" fill="#131313"/><rect x="594.15" y="419.4" width="34.95" height="34.95" fill="#151515"/><polygon points="594.15,419.4 629.1,419.4 594.15,454.34999999999997" fill="#161616"/><rect x="559.2" y="454.35" width="34.95" height="34.95" fill="#171717"/><polygon points="559.2,454.35 594.1500000000001,454.35 594.1500000000001,489.3" fill="#121212"/><rect x="594.15" y="454.35" width="34.95" height="34.95" fill="#121212"/><polygon points="594.15,454.35 629.1,489.3 594.15,489.3" fill="#121212"/><rect x="629.1" y="419.4" width="69.9" height="69.9" fill="#181818"/><path d="M 629.1 419.4 A 69.9 69.9 0 0 1  699 489.29999999999995 L 629.1 419.4 A 69.9 69.9 0 0 0 699 489.29999999999995" fill="#171717"/><rect x="699" y="419.4" width="69.9" height="69.9" fill="#151515"/><polygon points="699,419.4 768.9,419.4 768.9,489.29999999999995" fill="#161616"/><rect x="768.9000000000001" y="419.40000000000003" width="69.9" height="69.9" fill="#121212"/><rect x="768.9" y="419.4" width="34.95" height="34.95" fill="#181818"/><path d="M 768.9 419.4 A 34.95 34.95 0 0 1 803.85 454.34999999999997 L 768.9 454.34999999999997" fill="#151515"/><rect x="803.85" y="419.4" width="34.95" height="34.95" fill="#121212"/><path d="M 803.85 454.34999999999997 A 34.95 34.95 0 0 1  838.8000000000001 419.4 L 838.8000000000001 454.34999999999997" fill="#121212"/><rect x="768.9" y="454.35" width="34.95" height="34.95" fill="#131313"/><path d="M 768.9 489.3 A 34.95 34.95 0 0 0 803.85 454.35 L 768.9 454.35" fill="#121212"/><rect x="803.85" y="454.35" width="34.95" height="34.95" fill="#121212"/><path d="M 803.85 454.35 A 34.95 34.95 0 0 0 838.8000000000001 489.3 L 838.8000000000001 454.35" fill="#171717"/><rect x="838.8" y="419.4" width="69.9" height="69.9" fill="#121212"/><polygon points="838.8,419.4 908.6999999999999,489.29999999999995 838.8,489.29999999999995" fill="#161616"/><rect x="908.7" y="419.4" width="69.9" height="69.9" fill="#151515"/><path d="M 908.7 419.4 A 69.9 69.9 0 0 1 978.6 489.29999999999995 L 908.7 489.29999999999995" fill="#151515"/><rect x="978.6" y="419.4" width="69.9" height="69.9" fill="#131313"/><rect x="978.6" y="419.4" width="69.9" height="69.9" fill="#131313"/><rect x="1048.5" y="419.40000000000003" width="69.9" height="69.9" fill="#121212"/><rect x="1048.5" y="419.4" width="34.95" height="34.95" fill="#121212"/><path d="M 1048.5 419.4 A 34.95 34.95 0 0 0 1083.45 454.34999999999997 L 1083.45 419.4" fill="#121212"/><rect x="1083.45" y="419.4" width="34.95" height="34.95" fill="#181818"/><path d="M 1083.45 454.34999999999997 A 34.95 34.95 0 0 0 1118.4 419.4 L 1083.45 419.4" fill="#121212"/><rect x="1048.5" y="454.35" width="34.95" height="34.95" fill="#121212"/><path d="M 1048.5 489.3 A 34.95 34.95 0 0 1  1083.45 454.35 L 1083.45 489.3" fill="#121212"/><rect x="1083.45" y="454.35" width="34.95" height="34.95" fill="#121212"/><path d="M 1083.45 454.35 A 34.95 34.95 0 0 1 1118.4 489.3 L 1083.45 489.3" fill="#161616"/><rect x="0" y="489.30000000000007" width="69.9" height="69.9" fill="#121212"/><rect x="0" y="489.3" width="34.95" height="34.95" fill="#121212"/><polygon points="34.95,489.3 34.95,524.25 0,524.25" fill="#131313"/><rect x="34.95" y="489.3" width="34.95" height="34.95" fill="#121212"/><polygon points="34.95,489.3 69.9,524.25 34.95,524.25" fill="#121212"/><rect x="0" y="524.25" width="34.95" height="34.95" fill="#121212"/><polygon points="0,524.25 34.95,524.25 34.95,559.2" fill="#161616"/><rect x="34.95" y="524.25" width="34.95" height="34.95" fill="#121212"/><polygon points="34.95,524.25 69.9,524.25 34.95,559.2" fill="#121212"/><rect x="69.9" y="489.30000000000007" width="69.9" height="69.9" fill="#121212"/><rect x="69.9" y="489.3" width="34.95" height="34.95" fill="#121212"/><polygon points="104.85000000000001,489.3 104.85000000000001,524.25 69.9,524.25" fill="#121212"/><rect x="104.85" y="489.3" width="34.95" height="34.95" fill="#121212"/><polygon points="104.85,489.3 139.8,489.3 104.85,524.25" fill="#121212"/><rect x="69.9" y="524.25" width="34.95" height="34.95" fill="#121212"/><polygon points="69.9,524.25 104.85000000000001,524.25 104.85000000000001,559.2" fill="#121212"/><rect x="104.85" y="524.25" width="34.95" height="34.95" fill="#121212"/><polygon points="104.85,524.25 139.8,559.2 104.85,559.2" fill="#121212"/><rect x="139.8" y="489.3" width="69.9" height="69.9" fill="#181818"/><rect x="139.8" y="489.3" width="69.9" height="69.9" fill="#131313"/><rect x="209.7" y="489.3" width="69.9" height="69.9" fill="#121212"/><path d="M 209.7 489.3 A 69.9 69.9 0 0 1 279.6 559.2 L 209.7 559.2" fill="#171717"/><rect x="279.6" y="489.30000000000007" width="69.9" height="69.9" fill="#121212"/><rect x="279.6" y="489.3" width="34.95" height="34.95" fill="#121212"/><path d="M 279.6 524.25 A 34.95 34.95 0 0 0 314.55 489.3 L 279.6 489.3" fill="#121212"/><rect x="314.55" y="489.3" width="34.95" height="34.95" fill="#131313"/><path d="M 314.55 489.3 A 34.95 34.95 0 0 0 349.5 524.25 L 349.5 489.3" fill="#131313"/><rect x="279.6" y="524.25" width="34.95" height="34.95" fill="#121212"/><path d="M 279.6 524.25 A 34.95 34.95 0 0 1 314.55 559.2 L 279.6 559.2" fill="#151515"/><rect x="314.55" y="524.25" width="34.95" height="34.95" fill="#121212"/><path d="M 314.55 559.2 A 34.95 34.95 0 0 1  349.5 524.25 L 349.5 559.2" fill="#121212"/><rect x="349.5" y="489.30000000000007" width="69.9" height="69.9" fill="#121212"/><rect x="349.5" y="489.3" width="34.95" height="34.95" fill="#121212"/><path d="M 349.5 524.25 A 34.95 34.95 0 0 1  384.45 489.3 L 384.45 524.25" fill="#121212"/><rect x="384.45" y="489.3" width="34.95" height="34.95" fill="#141414"/><path d="M 384.45 489.3 A 34.95 34.95 0 0 1 419.4 524.25 L 384.45 524.25" fill="#121212"/><rect x="349.5" y="524.25" width="34.95" height="34.95" fill="#121212"/><path d="M 349.5 524.25 A 34.95 34.95 0 0 0 384.45 559.2 L 384.45 524.25" fill="#121212"/><rect x="384.45" y="524.25" width="34.95" height="34.95" fill="#171717"/><path d="M 384.45 559.2 A 34.95 34.95 0 0 0 419.4 524.25 L 384.45 524.25" fill="#121212"/><rect x="419.4" y="489.3" width="69.9" height="69.9" fill="#121212"/><rect x="419.4" y="489.3" width="69.9" height="69.9" fill="#121212"/><rect x="489.3" y="489.3" width="69.9" height="69.9" fill="#171717"/><path d="M 489.3 489.3 A 69.9 69.9 0 0 1  559.2 559.2 L 489.3 489.3 A 69.9 69.9 0 0 0 559.2 559.2" fill="#151515"/><rect x="559.2" y="489.30000000000007" width="69.9" height="69.9" fill="#121212"/><rect x="559.2" y="489.3" width="34.95" height="34.95" fill="#121212"/><path d="M 559.2 524.25 A 34.95 34.95 0 0 1 594.1500000000001 489.3 L 594.1500000000001 498.0375 A 26.212500000000002 26.212500000000002 0 0 0 567.9375 524.25" fill="#121212"/><rect x="594.15" y="489.3" width="34.95" height="34.95" fill="#151515"/><path d="M 594.15 489.3 A 34.95 34.95 0 0 1 629.1 524.25 L 620.3625 524.25 A 26.212500000000002 26.212500000000002 0 0 0 594.15 498.0375" fill="#121212"/><rect x="559.2" y="524.25" width="34.95" height="34.95" fill="#181818"/><path d="M 559.2 524.25 A 34.95 34.95 0 0 0 594.1500000000001 559.2 L 594.1500000000001 550.4625 A 26.212500000000002 26.212500000000002 0 0 1 567.9375 524.25" fill="#121212"/><rect x="594.15" y="524.25" width="34.95" height="34.95" fill="#161616"/><path d="M 594.15 559.2 A 34.95 34.95 0 0 0 629.1 524.25 L 620.3625 524.25 A 26.212500000000002 26.212500000000002 0 0 1 594.15 550.4625" fill="#121212"/><rect x="629.1" y="489.30000000000007" width="69.9" height="69.9" fill="#121212"/><rect x="629.1" y="489.3" width="34.95" height="34.95" fill="#181818"/><path d="M 629.1 524.25 A 34.95 34.95 0 0 1  664.0500000000001 489.3 L 664.0500000000001 524.25" fill="#141414"/><rect x="664.05" y="489.3" width="34.95" height="34.95" fill="#121212"/><path d="M 664.05 489.3 A 34.95 34.95 0 0 1 699 524.25 L 664.05 524.25" fill="#121212"/><rect x="629.1" y="524.25" width="34.95" height="34.95" fill="#121212"/><path d="M 629.1 524.25 A 34.95 34.95 0 0 0 664.0500000000001 559.2 L 664.0500000000001 524.25" fill="#131313"/><rect x="664.05" y="524.25" width="34.95" height="34.95" fill="#171717"/><path d="M 664.05 559.2 A 34.95 34.95 0 0 0 699 524.25 L 664.05 524.25" fill="#121212"/><rect x="699" y="489.30000000000007" width="69.9" height="69.9" fill="#121212"/><rect x="699" y="489.3" width="34.95" height="34.95" fill="#181818"/><polygon points="733.95,489.3 733.95,524.25 699,524.25" fill="#131313"/><rect x="733.95" y="489.3" width="34.95" height="34.95" fill="#151515"/><polygon points="733.95,489.3 768.9000000000001,524.25 733.95,524.25" fill="#121212"/><rect x="699" y="524.25" width="34.95" height="34.95" fill="#161616"/><polygon points="699,524.25 733.95,524.25 699,559.2" fill="#121212"/><rect x="733.95" y="524.25" width="34.95" height="34.95" fill="#171717"/><polygon points="733.95,524.25 768.9000000000001,524.25 768.9000000000001,559.2" fill="#141414"/><rect x="768.9000000000001" y="489.30000000000007" width="69.9" height="69.9" fill="#121212"/><rect x="768.9" y="489.3" width="34.95" height="34.95" fill="#121212"/><polygon points="803.85,489.3 803.85,524.25 768.9,524.25" fill="#161616"/><rect x="803.85" y="489.3" width="34.95" height="34.95" fill="#121212"/><polygon points="803.85,489.3 838.8000000000001,524.25 803.85,524.25" fill="#121212"/><rect x="768.9" y="524.25" width="34.95" height="34.95" fill="#121212"/><polygon points="768.9,524.25 803.85,524.25 768.9,559.2" fill="#151515"/><rect x="803.85" y="524.25" width="34.95" height="34.95" fill="#121212"/><polygon points="803.85,524.25 838.8000000000001,524.25 838.8000000000001,559.2" fill="#141414"/><rect x="838.8000000000001" y="489.30000000000007" width="69.9" height="69.9" fill="#121212"/><rect x="838.8" y="489.3" width="34.95" height="34.95" fill="#121212"/><path d="M 838.8 489.3 A 34.95 34.95 0 0 1 873.75 524.25 L 838.8 524.25" fill="#121212"/><rect x="873.75" y="489.3" width="34.95" height="34.95" fill="#151515"/><path d="M 873.75 524.25 A 34.95 34.95 0 0 1  908.7 489.3 L 908.7 524.25" fill="#121212"/><rect x="838.8" y="524.25" width="34.95" height="34.95" fill="#121212"/><path d="M 838.8 559.2 A 34.95 34.95 0 0 0 873.75 524.25 L 838.8 524.25" fill="#131313"/><rect x="873.75" y="524.25" width="34.95" height="34.95" fill="#161616"/><path d="M 873.75 524.25 A 34.95 34.95 0 0 0 908.7 559.2 L 908.7 524.25" fill="#121212"/><rect x="908.7" y="489.30000000000007" width="69.9" height="69.9" fill="#121212"/><rect x="908.7" y="489.3" width="34.95" height="34.95" fill="#161616"/><path d="M 908.7 489.3 A 34.95 34.95 0 0 0 943.6500000000001 524.25 L 943.6500000000001 489.3" fill="#161616"/><rect x="943.65" y="489.3" width="34.95" height="34.95" fill="#121212"/><path d="M 943.65 524.25 A 34.95 34.95 0 0 0 978.6 489.3 L 943.65 489.3" fill="#121212"/><rect x="908.7" y="524.25" width="34.95" height="34.95" fill="#121212"/><path d="M 908.7 559.2 A 34.95 34.95 0 0 1  943.6500000000001 524.25 L 943.6500000000001 559.2" fill="#131313"/><rect x="943.65" y="524.25" width="34.95" height="34.95" fill="#171717"/><path d="M 943.65 524.25 A 34.95 34.95 0 0 1 978.6 559.2 L 943.65 559.2" fill="#181818"/><rect x="978.6" y="489.3" width="69.9" height="69.9" fill="#121212"/><rect x="978.6" y="489.3" width="69.9" height="69.9" fill="#121212"/><rect x="1048.5" y="489.30000000000007" width="69.9" height="69.9" fill="#121212"/><rect x="1048.5" y="489.3" width="34.95" height="34.95" fill="#141414"/><polygon points="1083.45,489.3 1083.45,524.25 1048.5,524.25" fill="#161616"/><rect x="1083.45" y="489.3" width="34.95" height="34.95" fill="#121212"/><polygon points="1083.45,489.3 1118.4,524.25 1083.45,524.25" fill="#121212"/><rect x="1048.5" y="524.25" width="34.95" height="34.95" fill="#151515"/><polygon points="1048.5,524.25 1083.45,524.25 1083.45,559.2" fill="#131313"/><rect x="1083.45" y="524.25" width="34.95" height="34.95" fill="#121212"/><polygon points="1083.45,524.25 1118.4,524.25 1083.45,559.2" fill="#181818"/><rect x="0" y="559.2" width="69.9" height="69.9" fill="#121212"/><rect x="0" y="559.2" width="34.95" height="34.95" fill="#121212"/><polygon points="34.95,559.2 34.95,594.1500000000001 0,594.1500000000001" fill="#121212"/><rect x="34.95" y="559.2" width="34.95" height="34.95" fill="#121212"/><polygon points="34.95,559.2 69.9,594.1500000000001 34.95,594.1500000000001" fill="#171717"/><rect x="0" y="594.15" width="34.95" height="34.95" fill="#151515"/><polygon points="0,594.15 34.95,594.15 0,629.1" fill="#121212"/><rect x="34.95" y="594.15" width="34.95" height="34.95" fill="#121212"/><polygon points="34.95,594.15 69.9,594.15 69.9,629.1" fill="#141414"/><rect x="69.9" y="559.2" width="69.9" height="69.9" fill="#121212"/><polygon points="139.8,559.2 139.8,629.1 69.9,629.1" fill="#121212"/><rect x="139.8" y="559.2" width="69.9" height="69.9" fill="#121212"/><rect x="139.8" y="559.2" width="34.95" height="34.95" fill="#121212"/><path d="M 139.8 594.1500000000001 A 34.95 34.95 0 0 1 174.75 559.2 L 174.75 567.9375 A 26.212500000000002 26.212500000000002 0 0 0 148.53750000000002 594.1500000000001" fill="#151515"/><rect x="174.75" y="559.2" width="34.95" height="34.95" fill="#121212"/><path d="M 174.75 559.2 A 34.95 34.95 0 0 1 209.7 594.1500000000001 L 200.9625 594.1500000000001 A 26.212500000000002 26.212500000000002 0 0 0 174.75 567.9375" fill="#171717"/><rect x="139.8" y="594.15" width="34.95" height="34.95" fill="#151515"/><path d="M 139.8 594.15 A 34.95 34.95 0 0 0 174.75 629.1 L 174.75 620.3625 A 26.212500000000002 26.212500000000002 0 0 1 148.53750000000002 594.15" fill="#121212"/><rect x="174.75" y="594.15" width="34.95" height="34.95" fill="#121212"/><path d="M 174.75 629.1 A 34.95 34.95 0 0 0 209.7 594.15 L 200.9625 594.15 A 26.212500000000002 26.212500000000002 0 0 1 174.75 620.3625" fill="#121212"/><rect x="209.70000000000002" y="559.2" width="69.9" height="69.9" fill="#121212"/><rect x="209.7" y="559.2" width="34.95" height="34.95" fill="#121212"/><path d="M 209.7 594.1500000000001 A 34.95 34.95 0 0 1  244.64999999999998 559.2 L 244.64999999999998 594.1500000000001" fill="#121212"/><rect x="244.65" y="559.2" width="34.95" height="34.95" fill="#141414"/><path d="M 244.65 559.2 A 34.95 34.95 0 0 1 279.6 594.1500000000001 L 244.65 594.1500000000001" fill="#141414"/><rect x="209.7" y="594.15" width="34.95" height="34.95" fill="#151515"/><path d="M 209.7 594.15 A 34.95 34.95 0 0 0 244.64999999999998 629.1 L 244.64999999999998 594.15" fill="#131313"/><rect x="244.65" y="594.15" width="34.95" height="34.95" fill="#121212"/><path d="M 244.65 629.1 A 34.95 34.95 0 0 0 279.6 594.15 L 244.65 594.15" fill="#121212"/><rect x="279.6" y="559.2" width="69.9" height="69.9" fill="#121212"/><rect x="279.6" y="559.2" width="34.95" height="34.95" fill="#121212"/><path d="M 279.6 559.2 A 34.95 34.95 0 0 0 314.55 594.1500000000001 L 314.55 559.2" fill="#131313"/><rect x="314.55" y="559.2" width="34.95" height="34.95" fill="#121212"/><path d="M 314.55 594.1500000000001 A 34.95 34.95 0 0 0 349.5 559.2 L 314.55 559.2" fill="#121212"/><rect x="279.6" y="594.15" width="34.95" height="34.95" fill="#121212"/><path d="M 279.6 629.1 A 34.95 34.95 0 0 1  314.55 594.15 L 314.55 629.1" fill="#121212"/><rect x="314.55" y="594.15" width="34.95" height="34.95" fill="#121212"/><path d="M 314.55 594.15 A 34.95 34.95 0 0 1 349.5 629.1 L 314.55 629.1" fill="#121212"/><rect x="349.5" y="559.2" width="69.9" height="69.9" fill="#121212"/><rect x="349.5" y="559.2" width="34.95" height="34.95" fill="#121212"/><path d="M 349.5 594.1500000000001 A 34.95 34.95 0 0 1  384.45 559.2 L 384.45 594.1500000000001" fill="#121212"/><rect x="384.45" y="559.2" width="34.95" height="34.95" fill="#121212"/><path d="M 384.45 559.2 A 34.95 34.95 0 0 1 419.4 594.1500000000001 L 384.45 594.1500000000001" fill="#151515"/><rect x="349.5" y="594.15" width="34.95" height="34.95" fill="#141414"/><path d="M 349.5 594.15 A 34.95 34.95 0 0 0 384.45 629.1 L 384.45 594.15" fill="#131313"/><rect x="384.45" y="594.15" width="34.95" height="34.95" fill="#181818"/><path d="M 384.45 629.1 A 34.95 34.95 0 0 0 419.4 594.15 L 384.45 594.15" fill="#121212"/><rect x="419.40000000000003" y="559.2" width="69.9" height="69.9" fill="#121212"/><rect x="419.4" y="559.2" width="34.95" height="34.95" fill="#161616"/><polygon points="454.34999999999997,559.2 454.34999999999997,594.1500000000001 419.4,594.1500000000001" fill="#131313"/><rect x="454.35" y="559.2" width="34.95" height="34.95" fill="#121212"/><polygon points="454.35,559.2 489.3,559.2 454.35,594.1500000000001" fill="#121212"/><rect x="419.4" y="594.15" width="34.95" height="34.95" fill="#121212"/><polygon points="419.4,594.15 454.34999999999997,594.15 454.34999999999997,629.1" fill="#121212"/><rect x="454.35" y="594.15" width="34.95" height="34.95" fill="#171717"/><polygon points="454.35,594.15 489.3,629.1 454.35,629.1" fill="#151515"/><rect x="489.30000000000007" y="559.2" width="69.9" height="69.9" fill="#121212"/><rect x="489.3" y="559.2" width="34.95" height="34.95" fill="#121212"/><path d="M 489.3 559.2 A 34.95 34.95 0 0 1 524.25 594.1500000000001 L 489.3 594.1500000000001" fill="#151515"/><rect x="524.25" y="559.2" width="34.95" height="34.95" fill="#171717"/><path d="M 524.25 594.1500000000001 A 34.95 34.95 0 0 1  559.2 559.2 L 559.2 594.1500000000001" fill="#161616"/><rect x="489.3" y="594.15" width="34.95" height="34.95" fill="#121212"/><path d="M 489.3 629.1 A 34.95 34.95 0 0 0 524.25 594.15 L 489.3 594.15" fill="#121212"/><rect x="524.25" y="594.15" width="34.95" height="34.95" fill="#121212"/><path d="M 524.25 594.15 A 34.95 34.95 0 0 0 559.2 629.1 L 559.2 594.15" fill="#121212"/><rect x="559.2" y="559.2" width="69.9" height="69.9" fill="#121212"/><rect x="559.2" y="559.2" width="34.95" height="34.95" fill="#151515"/><path d="M 559.2 559.2 A 34.95 34.95 0 0 0 594.1500000000001 594.1500000000001 L 594.1500000000001 559.2" fill="#121212"/><rect x="594.15" y="559.2" width="34.95" height="34.95" fill="#121212"/><path d="M 594.15 594.1500000000001 A 34.95 34.95 0 0 0 629.1 559.2 L 594.15 559.2" fill="#131313"/><rect x="559.2" y="594.15" width="34.95" height="34.95" fill="#161616"/><path d="M 559.2 629.1 A 34.95 34.95 0 0 1  594.1500000000001 594.15 L 594.1500000000001 629.1" fill="#121212"/><rect x="594.15" y="594.15" width="34.95" height="34.95" fill="#141414"/><path d="M 594.15 594.15 A 34.95 34.95 0 0 1 629.1 629.1 L 594.15 629.1" fill="#161616"/><rect x="629.1" y="559.2" width="69.9" height="69.9" fill="#121212"/><rect x="629.1" y="559.2" width="34.95" height="34.95" fill="#171717"/><polygon points="664.0500000000001,559.2 664.0500000000001,594.1500000000001 629.1,594.1500000000001" fill="#121212"/><rect x="664.05" y="559.2" width="34.95" height="34.95" fill="#131313"/><polygon points="664.05,559.2 699,594.1500000000001 664.05,594.1500000000001" fill="#161616"/><rect x="629.1" y="594.15" width="34.95" height="34.95" fill="#121212"/><polygon points="629.1,594.15 664.0500000000001,594.15 664.0500000000001,629.1" fill="#121212"/><rect x="664.05" y="594.15" width="34.95" height="34.95" fill="#141414"/><polygon points="664.05,594.15 699,594.15 664.05,629.1" fill="#121212"/><rect x="699" y="559.2" width="69.9" height="69.9" fill="#121212"/><rect x="699" y="559.2" width="34.95" height="34.95" fill="#121212"/><path d="M 699 559.2 A 34.95 34.95 0 0 0 733.95 594.1500000000001 L 733.95 559.2" fill="#121212"/><rect x="733.95" y="559.2" width="34.95" height="34.95" fill="#121212"/><path d="M 733.95 594.1500000000001 A 34.95 34.95 0 0 0 768.9000000000001 559.2 L 733.95 559.2" fill="#121212"/><rect x="699" y="594.15" width="34.95" height="34.95" fill="#121212"/><path d="M 699 629.1 A 34.95 34.95 0 0 1  733.95 594.15 L 733.95 629.1" fill="#171717"/><rect x="733.95" y="594.15" width="34.95" height="34.95" fill="#171717"/><path d="M 733.95 594.15 A 34.95 34.95 0 0 1 768.9000000000001 629.1 L 733.95 629.1" fill="#121212"/><rect x="768.9" y="559.2" width="69.9" height="69.9" fill="#121212"/><rect x="768.9" y="559.2" width="69.9" height="69.9" fill="#141414"/><rect x="838.8" y="559.2" width="69.9" height="69.9" fill="#131313"/><polygon points="908.6999999999999,559.2 908.6999999999999,629.1 838.8,629.1" fill="#121212"/><rect x="908.7" y="559.2" width="69.9" height="69.9" fill="#121212"/><rect x="908.7" y="559.2" width="69.9" height="69.9" fill="#171717"/><rect x="978.6" y="559.2" width="69.9" height="69.9" fill="#121212"/><rect x="978.6" y="559.2" width="69.9" height="69.9" fill="#181818"/><rect x="1048.5" y="559.2" width="69.9" height="69.9" fill="#171717"/><rect x="1048.5" y="559.2" width="69.9" height="69.9" fill="#141414"/><rect x="0" y="629.1" width="69.9" height="69.9" fill="#121212"/><rect x="0" y="629.1" width="34.95" height="34.95" fill="#121212"/><path d="M 0 664.0500000000001 A 34.95 34.95 0 0 1 34.95 629.1 L 34.95 637.8375 A 26.212500000000002 26.212500000000002 0 0 0 8.7375 664.0500000000001" fill="#171717"/><rect x="34.95" y="629.1" width="34.95" height="34.95" fill="#131313"/><path d="M 34.95 629.1 A 34.95 34.95 0 0 1 69.9 664.0500000000001 L 61.16250000000001 664.0500000000001 A 26.212500000000002 26.212500000000002 0 0 0 34.95 637.8375" fill="#141414"/><rect x="0" y="664.05" width="34.95" height="34.95" fill="#161616"/><path d="M 0 664.05 A 34.95 34.95 0 0 0 34.95 699 L 34.95 690.2624999999999 A 26.212500000000002 26.212500000000002 0 0 1 8.7375 664.05" fill="#121212"/><rect x="34.95" y="664.05" width="34.95" height="34.95" fill="#121212"/><path d="M 34.95 699 A 34.95 34.95 0 0 0 69.9 664.05 L 61.16250000000001 664.05 A 26.212500000000002 26.212500000000002 0 0 1 34.95 690.2624999999999" fill="#121212"/><rect x="69.9" y="629.1" width="69.9" height="69.9" fill="#141414"/><polygon points="69.9,629.1 139.8,629.1 139.8,699" fill="#121212"/><rect x="139.8" y="629.1" width="69.9" height="69.9" fill="#121212"/><rect x="139.8" y="629.1" width="69.9" height="69.9" fill="#121212"/><rect x="209.70000000000002" y="629.1" width="69.9" height="69.9" fill="#121212"/><rect x="209.7" y="629.1" width="34.95" height="34.95" fill="#141414"/><polygon points="244.64999999999998,629.1 244.64999999999998,664.0500000000001 209.7,664.0500000000001" fill="#121212"/><rect x="244.65" y="629.1" width="34.95" height="34.95" fill="#171717"/><polygon points="244.65,629.1 279.6,629.1 244.65,664.0500000000001" fill="#121212"/><rect x="209.7" y="664.05" width="34.95" height="34.95" fill="#131313"/><polygon points="209.7,664.05 244.64999999999998,664.05 244.64999999999998,699" fill="#141414"/><rect x="244.65" y="664.05" width="34.95" height="34.95" fill="#171717"/><polygon points="244.65,664.05 279.6,699 244.65,699" fill="#151515"/><rect x="279.6" y="629.1" width="69.9" height="69.9" fill="#161616"/><path d="M 279.6 629.1 A 69.9 69.9 0 0 1  349.5 699 L 279.6 629.1 A 69.9 69.9 0 0 0 349.5 699" fill="#121212"/><rect x="349.5" y="629.1" width="69.9" height="69.9" fill="#121212"/><rect x="349.5" y="629.1" width="34.95" height="34.95" fill="#141414"/><path d="M 349.5 664.0500000000001 A 34.95 34.95 0 0 1  384.45 629.1 L 384.45 664.0500000000001" fill="#131313"/><rect x="384.45" y="629.1" width="34.95" height="34.95" fill="#171717"/><path d="M 384.45 629.1 A 34.95 34.95 0 0 1 419.4 664.0500000000001 L 384.45 664.0500000000001" fill="#121212"/><rect x="349.5" y="664.05" width="34.95" height="34.95" fill="#121212"/><path d="M 349.5 664.05 A 34.95 34.95 0 0 0 384.45 699 L 384.45 664.05" fill="#151515"/><rect x="384.45" y="664.05" width="34.95" height="34.95" fill="#121212"/><path d="M 384.45 699 A 34.95 34.95 0 0 0 419.4 664.05 L 384.45 664.05" fill="#121212"/><rect x="419.4" y="629.1" width="69.9" height="69.9" fill="#121212"/><path d="M 419.4 699 A 69.9 69.9 0 0 1  489.29999999999995 629.1 L 419.4 699 A 69.9 69.9 0 0 0 489.29999999999995 629.1" fill="#181818"/><rect x="489.3" y="629.1" width="69.9" height="69.9" fill="#121212"/><rect x="489.3" y="629.1" width="69.9" height="69.9" fill="#121212"/><rect x="559.2" y="629.1" width="69.9" height="69.9" fill="#121212"/><rect x="559.2" y="629.1" width="34.95" height="34.95" fill="#121212"/><polygon points="594.1500000000001,629.1 594.1500000000001,664.0500000000001 559.2,664.0500000000001" fill="#131313"/><rect x="594.15" y="629.1" width="34.95" height="34.95" fill="#141414"/><polygon points="594.15,629.1 629.1,664.0500000000001 594.15,664.0500000000001" fill="#121212"/><rect x="559.2" y="664.05" width="34.95" height="34.95" fill="#121212"/><polygon points="559.2,664.05 594.1500000000001,664.05 559.2,699" fill="#121212"/><rect x="594.15" y="664.05" width="34.95" height="34.95" fill="#121212"/><polygon points="594.15,664.05 629.1,664.05 629.1,699" fill="#151515"/><rect x="629.1" y="629.1" width="69.9" height="69.9" fill="#121212"/><path d="M 629.1 629.1 A 69.9 69.9 0 0 0 699 699 L 699 629.1" fill="#171717"/><rect x="699" y="629.1" width="69.9" height="69.9" fill="#121212"/><path d="M 699 629.1 A 69.9 69.9 0 0 0 768.9 699 L 768.9 629.1" fill="#121212"/><rect x="768.9000000000001" y="629.1" width="69.9" height="69.9" fill="#121212"/><rect x="768.9" y="629.1" width="34.95" height="34.95" fill="#121212"/><path d="M 768.9 629.1 A 34.95 34.95 0 0 1 803.85 664.0500000000001 L 768.9 664.0500000000001" fill="#121212"/><rect x="803.85" y="629.1" width="34.95" height="34.95" fill="#131313"/><path d="M 803.85 664.0500000000001 A 34.95 34.95 0 0 1  838.8000000000001 629.1 L 838.8000000000001 664.0500000000001" fill="#161616"/><rect x="768.9" y="664.05" width="34.95" height="34.95" fill="#141414"/><path d="M 768.9 699 A 34.95 34.95 0 0 0 803.85 664.05 L 768.9 664.05" fill="#141414"/><rect x="803.85" y="664.05" width="34.95" height="34.95" fill="#141414"/><path d="M 803.85 664.05 A 34.95 34.95 0 0 0 838.8000000000001 699 L 838.8000000000001 664.05" fill="#141414"/><rect x="838.8000000000001" y="629.1" width="69.9" height="69.9" fill="#121212"/><rect x="838.8" y="629.1" width="34.95" height="34.95" fill="#121212"/><polygon points="873.75,629.1 873.75,664.0500000000001 838.8,664.0500000000001" fill="#121212"/><rect x="873.75" y="629.1" width="34.95" height="34.95" fill="#121212"/><polygon points="873.75,629.1 908.7,629.1 873.75,664.0500000000001" fill="#121212"/><rect x="838.8" y="664.05" width="34.95" height="34.95" fill="#141414"/><polygon points="838.8,664.05 873.75,664.05 873.75,699" fill="#151515"/><rect x="873.75" y="664.05" width="34.95" height="34.95" fill="#181818"/><polygon points="873.75,664.05 908.7,699 873.75,699" fill="#121212"/><rect x="908.7" y="629.1" width="69.9" height="69.9" fill="#121212"/><rect x="908.7" y="629.1" width="34.95" height="34.95" fill="#151515"/><path d="M 908.7 664.0500000000001 A 34.95 34.95 0 0 1  943.6500000000001 629.1 L 943.6500000000001 664.0500000000001" fill="#121212"/><rect x="943.65" y="629.1" width="34.95" height="34.95" fill="#121212"/><path d="M 943.65 629.1 A 34.95 34.95 0 0 1 978.6 664.0500000000001 L 943.65 664.0500000000001" fill="#121212"/><rect x="908.7" y="664.05" width="34.95" height="34.95" fill="#121212"/><path d="M 908.7 664.05 A 34.95 34.95 0 0 0 943.6500000000001 699 L 943.6500000000001 664.05" fill="#121212"/><rect x="943.65" y="664.05" width="34.95" height="34.95" fill="#141414"/><path d="M 943.65 699 A 34.95 34.95 0 0 0 978.6 664.05 L 943.65 664.05" fill="#171717"/><rect x="978.6000000000001" y="629.1" width="69.9" height="69.9" fill="#121212"/><rect x="978.6" y="629.1" width="34.95" height="34.95" fill="#151515"/><path d="M 978.6 664.0500000000001 A 34.95 34.95 0 0 1  1013.5500000000001 629.1 L 1013.5500000000001 664.0500000000001" fill="#161616"/><rect x="1013.55" y="629.1" width="34.95" height="34.95" fill="#151515"/><path d="M 1013.55 629.1 A 34.95 34.95 0 0 1 1048.5 664.0500000000001 L 1013.55 664.0500000000001" fill="#181818"/><rect x="978.6" y="664.05" width="34.95" height="34.95" fill="#171717"/><path d="M 978.6 664.05 A 34.95 34.95 0 0 0 1013.5500000000001 699 L 1013.5500000000001 664.05" fill="#151515"/><rect x="1013.55" y="664.05" width="34.95" height="34.95" fill="#121212"/><path d="M 1013.55 699 A 34.95 34.95 0 0 0 1048.5 664.05 L 1013.55 664.05" fill="#121212"/><rect x="1048.5" y="629.1" width="69.9" height="69.9" fill="#121212"/><rect x="1048.5" y="629.1" width="34.95" height="34.95" fill="#121212"/><circle cx="1065.975" cy="646.575" r="17.475" fill="#121212"/><rect x="1083.45" y="629.1" width="34.95" height="34.95" fill="#121212"/><rect x="1083.45" y="629.1" width="34.95" height="34.95" fill="#141414"/><rect x="1048.5" y="664.05" width="34.95" height="34.95" fill="#121212"/><circle cx="1065.975" cy="681.525" r="17.475" fill="#121212"/><rect x="1083.45" y="664.05" width="34.95" height="34.95" fill="#181818"/><rect x="1083.45" y="664.05" width="34.95" height="34.95" fill="#141414"/></g></svg>